<svg width="705" height="140" viewBox="0 0 705 140" fill="none" xmlns="http://www.w3.org/2000/svg">
<rect width="141" height="140" fill="#FF780F"/>
<rect x="141" width="141" height="140" fill="#FF923F"/>
<rect x="282" width="141" height="140" fill="#FEBB86"/>
<rect x="423" width="141" height="140" fill="#E3DAD3"/>
<rect x="564" width="141" height="140" fill="#231910"/>
<path d="M51.2285 121.598H49.6816L49.2129 124H48.375L48.8438 121.598H47.4434V120.795H48.9961L49.4004 118.721H47.8887V117.906H49.5586L50.0391 115.469H50.877L50.3965 117.906H51.9434L52.4238 115.469H53.2676L52.7871 117.906H53.9824V118.721H52.6289L52.2246 120.795H53.543V121.598H52.0723L51.6035 124H50.7598L51.2285 121.598ZM49.834 120.795H51.3809L51.7852 118.721H50.2383L49.834 120.795ZM59.8359 120.232H56.2559V124H55.1309V115.469H60.416V116.395H56.2559V119.312H59.8359V120.232ZM66.4688 120.232H62.8887V124H61.7637V115.469H67.0488V116.395H62.8887V119.312H66.4688V120.232ZM73.623 116.078L70.0898 124H68.9531L72.4746 116.359H67.8574V115.469H73.623V116.078ZM80.0273 117.695C80.0273 118.121 79.9141 118.5 79.6875 118.832C79.4648 119.164 79.1621 119.424 78.7793 119.611C79.2246 119.803 79.5762 120.082 79.834 120.449C80.0957 120.816 80.2266 121.232 80.2266 121.697C80.2266 122.436 79.9766 123.023 79.4766 123.461C78.9805 123.898 78.3262 124.117 77.5137 124.117C76.6934 124.117 76.0352 123.898 75.5391 123.461C75.0469 123.02 74.8008 122.432 74.8008 121.697C74.8008 121.236 74.9258 120.82 75.1758 120.449C75.4297 120.078 75.7793 119.797 76.2246 119.605C75.8457 119.418 75.5469 119.158 75.3281 118.826C75.1094 118.494 75 118.117 75 117.695C75 116.977 75.2305 116.406 75.6914 115.984C76.1523 115.562 76.7598 115.352 77.5137 115.352C78.2637 115.352 78.8691 115.562 79.3301 115.984C79.7949 116.406 80.0273 116.977 80.0273 117.695ZM79.1426 121.674C79.1426 121.197 78.9902 120.809 78.6855 120.508C78.3848 120.207 77.9902 120.057 77.502 120.057C77.0137 120.057 76.6211 120.205 76.3242 120.502C76.0312 120.799 75.8848 121.189 75.8848 121.674C75.8848 122.158 76.0273 122.539 76.3125 122.816C76.6016 123.094 77.002 123.232 77.5137 123.232C78.0215 123.232 78.4199 123.094 78.709 122.816C78.998 122.535 79.1426 122.154 79.1426 121.674ZM77.5137 116.242C77.0879 116.242 76.7422 116.375 76.4766 116.641C76.2148 116.902 76.084 117.26 76.084 117.713C76.084 118.146 76.2129 118.498 76.4707 118.768C76.7324 119.033 77.0801 119.166 77.5137 119.166C77.9473 119.166 78.293 119.033 78.5508 118.768C78.8125 118.498 78.9434 118.146 78.9434 117.713C78.9434 117.279 78.8086 116.926 78.5391 116.652C78.2695 116.379 77.9277 116.242 77.5137 116.242ZM86.9414 120.361C86.9414 121.631 86.7246 122.574 86.291 123.191C85.8574 123.809 85.1797 124.117 84.2578 124.117C83.3477 124.117 82.6738 123.816 82.2363 123.215C81.7988 122.609 81.5723 121.707 81.5566 120.508V119.061C81.5566 117.807 81.7734 116.875 82.207 116.266C82.6406 115.656 83.3203 115.352 84.2461 115.352C85.1641 115.352 85.8398 115.646 86.2734 116.236C86.707 116.822 86.9297 117.729 86.9414 118.955V120.361ZM85.8574 118.879C85.8574 117.961 85.7285 117.293 85.4707 116.875C85.2129 116.453 84.8047 116.242 84.2461 116.242C83.6914 116.242 83.2871 116.451 83.0332 116.869C82.7793 117.287 82.6484 117.93 82.6406 118.797V120.531C82.6406 121.453 82.7734 122.135 83.0391 122.576C83.3086 123.014 83.7148 123.232 84.2578 123.232C84.793 123.232 85.1895 123.025 85.4473 122.611C85.709 122.197 85.8457 121.545 85.8574 120.654V118.879ZM93.3164 120.232H89.7363V124H88.6113V115.469H93.8965V116.395H89.7363V119.312H93.3164V120.232Z" fill="black"/>
<path d="M192.229 121.598H190.682L190.213 124H189.375L189.844 121.598H188.443V120.795H189.996L190.4 118.721H188.889V117.906H190.559L191.039 115.469H191.877L191.396 117.906H192.943L193.424 115.469H194.268L193.787 117.906H194.982V118.721H193.629L193.225 120.795H194.543V121.598H193.072L192.604 124H191.76L192.229 121.598ZM190.834 120.795H192.381L192.785 118.721H191.238L190.834 120.795ZM200.836 120.232H197.256V124H196.131V115.469H201.416V116.395H197.256V119.312H200.836V120.232ZM207.469 120.232H203.889V124H202.764V115.469H208.049V116.395H203.889V119.312H207.469V120.232ZM213.27 120.25C213.043 120.52 212.771 120.736 212.455 120.9C212.143 121.064 211.799 121.146 211.424 121.146C210.932 121.146 210.502 121.025 210.135 120.783C209.771 120.541 209.49 120.201 209.291 119.764C209.092 119.322 208.992 118.836 208.992 118.305C208.992 117.734 209.1 117.221 209.314 116.764C209.533 116.307 209.842 115.957 210.24 115.715C210.639 115.473 211.104 115.352 211.635 115.352C212.479 115.352 213.143 115.668 213.627 116.301C214.115 116.93 214.359 117.789 214.359 118.879V119.195C214.359 120.855 214.031 122.068 213.375 122.834C212.719 123.596 211.729 123.986 210.404 124.006H210.193V123.092H210.422C211.316 123.076 212.004 122.844 212.484 122.395C212.965 121.941 213.227 121.227 213.27 120.25ZM211.6 120.25C211.963 120.25 212.297 120.139 212.602 119.916C212.91 119.693 213.135 119.418 213.275 119.09V118.656C213.275 117.945 213.121 117.367 212.812 116.922C212.504 116.477 212.113 116.254 211.641 116.254C211.164 116.254 210.781 116.438 210.492 116.805C210.203 117.168 210.059 117.648 210.059 118.246C210.059 118.828 210.197 119.309 210.475 119.688C210.756 120.062 211.131 120.25 211.6 120.25ZM221.443 124H215.854V123.221L218.807 119.939C219.244 119.443 219.545 119.041 219.709 118.732C219.877 118.42 219.961 118.098 219.961 117.766C219.961 117.32 219.826 116.955 219.557 116.67C219.287 116.385 218.928 116.242 218.479 116.242C217.939 116.242 217.52 116.396 217.219 116.705C216.922 117.01 216.773 117.436 216.773 117.982H215.689C215.689 117.197 215.941 116.562 216.445 116.078C216.953 115.594 217.631 115.352 218.479 115.352C219.271 115.352 219.898 115.561 220.359 115.979C220.82 116.393 221.051 116.945 221.051 117.637C221.051 118.477 220.516 119.477 219.445 120.637L217.16 123.115H221.443V124ZM224.168 119.207H224.982C225.494 119.199 225.896 119.064 226.189 118.803C226.482 118.541 226.629 118.188 226.629 117.742C226.629 116.742 226.131 116.242 225.135 116.242C224.666 116.242 224.291 116.377 224.01 116.646C223.732 116.912 223.594 117.266 223.594 117.707H222.51C222.51 117.031 222.756 116.471 223.248 116.025C223.744 115.576 224.373 115.352 225.135 115.352C225.939 115.352 226.57 115.564 227.027 115.99C227.484 116.416 227.713 117.008 227.713 117.766C227.713 118.137 227.592 118.496 227.35 118.844C227.111 119.191 226.785 119.451 226.371 119.623C226.84 119.771 227.201 120.018 227.455 120.361C227.713 120.705 227.842 121.125 227.842 121.621C227.842 122.387 227.592 122.994 227.092 123.443C226.592 123.893 225.941 124.117 225.141 124.117C224.34 124.117 223.688 123.9 223.184 123.467C222.684 123.033 222.434 122.461 222.434 121.75H223.523C223.523 122.199 223.67 122.559 223.963 122.828C224.256 123.098 224.648 123.232 225.141 123.232C225.664 123.232 226.064 123.096 226.342 122.822C226.619 122.549 226.758 122.156 226.758 121.645C226.758 121.148 226.605 120.768 226.301 120.502C225.996 120.236 225.557 120.1 224.982 120.092H224.168V119.207ZM234.316 120.232H230.736V124H229.611V115.469H234.896V116.395H230.736V119.312H234.316V120.232Z" fill="black"/>
<path d="M332.344 121.598H330.797L330.328 124H329.49L329.959 121.598H328.559V120.795H330.111L330.516 118.721H329.004V117.906H330.674L331.154 115.469H331.992L331.512 117.906H333.059L333.539 115.469H334.383L333.902 117.906H335.098V118.721H333.744L333.34 120.795H334.658V121.598H333.188L332.719 124H331.875L332.344 121.598ZM330.949 120.795H332.496L332.9 118.721H331.354L330.949 120.795ZM340.951 120.232H337.371V124H336.246V115.469H341.531V116.395H337.371V119.312H340.951V120.232ZM347.701 120.057H344.004V123.08H348.299V124H342.879V115.469H348.24V116.395H344.004V119.137H347.701V120.057ZM349.699 124V115.469H352.488C353.414 115.469 354.109 115.66 354.574 116.043C355.043 116.426 355.277 116.992 355.277 117.742C355.277 118.141 355.164 118.494 354.938 118.803C354.711 119.107 354.402 119.344 354.012 119.512C354.473 119.641 354.836 119.887 355.102 120.25C355.371 120.609 355.506 121.039 355.506 121.539C355.506 122.305 355.258 122.906 354.762 123.344C354.266 123.781 353.564 124 352.658 124H349.699ZM350.824 120.01V123.08H352.682C353.205 123.08 353.617 122.945 353.918 122.676C354.223 122.402 354.375 122.027 354.375 121.551C354.375 120.523 353.816 120.01 352.699 120.01H350.824ZM350.824 119.107H352.523C353.016 119.107 353.408 118.984 353.701 118.738C353.998 118.492 354.146 118.158 354.146 117.736C354.146 117.268 354.01 116.928 353.736 116.717C353.463 116.502 353.047 116.395 352.488 116.395H350.824V119.107ZM357.176 124V115.469H359.965C360.891 115.469 361.586 115.66 362.051 116.043C362.52 116.426 362.754 116.992 362.754 117.742C362.754 118.141 362.641 118.494 362.414 118.803C362.188 119.107 361.879 119.344 361.488 119.512C361.949 119.641 362.312 119.887 362.578 120.25C362.848 120.609 362.982 121.039 362.982 121.539C362.982 122.305 362.734 122.906 362.238 123.344C361.742 123.781 361.041 124 360.135 124H357.176ZM358.301 120.01V123.08H360.158C360.682 123.08 361.094 122.945 361.395 122.676C361.699 122.402 361.852 122.027 361.852 121.551C361.852 120.523 361.293 120.01 360.176 120.01H358.301ZM358.301 119.107H360C360.492 119.107 360.885 118.984 361.178 118.738C361.475 118.492 361.623 118.158 361.623 117.736C361.623 117.268 361.486 116.928 361.213 116.717C360.939 116.502 360.523 116.395 359.965 116.395H358.301V119.107ZM369.545 117.695C369.545 118.121 369.432 118.5 369.205 118.832C368.982 119.164 368.68 119.424 368.297 119.611C368.742 119.803 369.094 120.082 369.352 120.449C369.613 120.816 369.744 121.232 369.744 121.697C369.744 122.436 369.494 123.023 368.994 123.461C368.498 123.898 367.844 124.117 367.031 124.117C366.211 124.117 365.553 123.898 365.057 123.461C364.564 123.02 364.318 122.432 364.318 121.697C364.318 121.236 364.443 120.82 364.693 120.449C364.947 120.078 365.297 119.797 365.742 119.605C365.363 119.418 365.064 119.158 364.846 118.826C364.627 118.494 364.518 118.117 364.518 117.695C364.518 116.977 364.748 116.406 365.209 115.984C365.67 115.562 366.277 115.352 367.031 115.352C367.781 115.352 368.387 115.562 368.848 115.984C369.312 116.406 369.545 116.977 369.545 117.695ZM368.66 121.674C368.66 121.197 368.508 120.809 368.203 120.508C367.902 120.207 367.508 120.057 367.02 120.057C366.531 120.057 366.139 120.205 365.842 120.502C365.549 120.799 365.402 121.189 365.402 121.674C365.402 122.158 365.545 122.539 365.83 122.816C366.119 123.094 366.52 123.232 367.031 123.232C367.539 123.232 367.938 123.094 368.227 122.816C368.516 122.535 368.66 122.154 368.66 121.674ZM367.031 116.242C366.605 116.242 366.26 116.375 365.994 116.641C365.732 116.902 365.602 117.26 365.602 117.713C365.602 118.146 365.73 118.498 365.988 118.768C366.25 119.033 366.598 119.166 367.031 119.166C367.465 119.166 367.811 119.033 368.068 118.768C368.33 118.498 368.461 118.146 368.461 117.713C368.461 117.279 368.326 116.926 368.057 116.652C367.787 116.379 367.445 116.242 367.031 116.242ZM375.363 115.463V116.383H375.164C374.32 116.398 373.648 116.648 373.148 117.133C372.648 117.617 372.359 118.299 372.281 119.178C372.73 118.662 373.344 118.404 374.121 118.404C374.863 118.404 375.455 118.666 375.896 119.189C376.342 119.713 376.564 120.389 376.564 121.217C376.564 122.096 376.324 122.799 375.844 123.326C375.367 123.854 374.727 124.117 373.922 124.117C373.105 124.117 372.443 123.805 371.936 123.18C371.428 122.551 371.174 121.742 371.174 120.754V120.338C371.174 118.768 371.508 117.568 372.176 116.74C372.848 115.908 373.846 115.482 375.17 115.463H375.363ZM373.939 119.307C373.568 119.307 373.227 119.418 372.914 119.641C372.602 119.863 372.385 120.143 372.264 120.479V120.877C372.264 121.58 372.422 122.146 372.738 122.576C373.055 123.006 373.449 123.221 373.922 123.221C374.41 123.221 374.793 123.041 375.07 122.682C375.352 122.322 375.492 121.852 375.492 121.27C375.492 120.684 375.35 120.211 375.064 119.852C374.783 119.488 374.408 119.307 373.939 119.307Z" fill="black"/>
<path d="M472.412 121.598H470.865L470.396 124H469.559L470.027 121.598H468.627V120.795H470.18L470.584 118.721H469.072V117.906H470.742L471.223 115.469H472.061L471.58 117.906H473.127L473.607 115.469H474.451L473.971 117.906H475.166V118.721H473.812L473.408 120.795H474.727V121.598H473.256L472.787 124H471.943L472.412 121.598ZM471.018 120.795H472.564L472.969 118.721H471.422L471.018 120.795ZM481.137 120.057H477.439V123.08H481.734V124H476.314V115.469H481.676V116.395H477.439V119.137H481.137V120.057ZM484.43 119.207H485.244C485.756 119.199 486.158 119.064 486.451 118.803C486.744 118.541 486.891 118.188 486.891 117.742C486.891 116.742 486.393 116.242 485.396 116.242C484.928 116.242 484.553 116.377 484.271 116.646C483.994 116.912 483.855 117.266 483.855 117.707H482.771C482.771 117.031 483.018 116.471 483.51 116.025C484.006 115.576 484.635 115.352 485.396 115.352C486.201 115.352 486.832 115.564 487.289 115.99C487.746 116.416 487.975 117.008 487.975 117.766C487.975 118.137 487.854 118.496 487.611 118.844C487.373 119.191 487.047 119.451 486.633 119.623C487.102 119.771 487.463 120.018 487.717 120.361C487.975 120.705 488.104 121.125 488.104 121.621C488.104 122.387 487.854 122.994 487.354 123.443C486.854 123.893 486.203 124.117 485.402 124.117C484.602 124.117 483.949 123.9 483.445 123.467C482.945 123.033 482.695 122.461 482.695 121.75H483.785C483.785 122.199 483.932 122.559 484.225 122.828C484.518 123.098 484.91 123.232 485.402 123.232C485.926 123.232 486.326 123.096 486.604 122.822C486.881 122.549 487.02 122.156 487.02 121.645C487.02 121.148 486.867 120.768 486.562 120.502C486.258 120.236 485.818 120.1 485.244 120.092H484.43V119.207ZM489.873 124V115.469H492.281C493.023 115.469 493.68 115.633 494.25 115.961C494.82 116.289 495.26 116.756 495.568 117.361C495.881 117.967 496.039 118.662 496.043 119.447V119.992C496.043 120.797 495.887 121.502 495.574 122.107C495.266 122.713 494.822 123.178 494.244 123.502C493.67 123.826 493 123.992 492.234 124H489.873ZM490.998 116.395V123.08H492.182C493.049 123.08 493.723 122.811 494.203 122.271C494.688 121.732 494.93 120.965 494.93 119.969V119.471C494.93 118.502 494.701 117.75 494.244 117.215C493.791 116.676 493.146 116.402 492.311 116.395H490.998ZM502.33 121.773H498.756L497.953 124H496.793L500.051 115.469H501.035L504.299 124H503.145L502.33 121.773ZM499.096 120.848H501.996L500.543 116.857L499.096 120.848ZM505.447 124V115.469H507.855C508.598 115.469 509.254 115.633 509.824 115.961C510.395 116.289 510.834 116.756 511.143 117.361C511.455 117.967 511.613 118.662 511.617 119.447V119.992C511.617 120.797 511.461 121.502 511.148 122.107C510.84 122.713 510.396 123.178 509.818 123.502C509.244 123.826 508.574 123.992 507.809 124H505.447ZM506.572 116.395V123.08H507.756C508.623 123.08 509.297 122.811 509.777 122.271C510.262 121.732 510.504 120.965 510.504 119.969V119.471C510.504 118.502 510.275 117.75 509.818 117.215C509.365 116.676 508.721 116.402 507.885 116.395H506.572ZM514.617 119.207H515.432C515.943 119.199 516.346 119.064 516.639 118.803C516.932 118.541 517.078 118.188 517.078 117.742C517.078 116.742 516.58 116.242 515.584 116.242C515.115 116.242 514.74 116.377 514.459 116.646C514.182 116.912 514.043 117.266 514.043 117.707H512.959C512.959 117.031 513.205 116.471 513.697 116.025C514.193 115.576 514.822 115.352 515.584 115.352C516.389 115.352 517.02 115.564 517.477 115.99C517.934 116.416 518.162 117.008 518.162 117.766C518.162 118.137 518.041 118.496 517.799 118.844C517.561 119.191 517.234 119.451 516.82 119.623C517.289 119.771 517.65 120.018 517.904 120.361C518.162 120.705 518.291 121.125 518.291 121.621C518.291 122.387 518.041 122.994 517.541 123.443C517.041 123.893 516.391 124.117 515.59 124.117C514.789 124.117 514.137 123.9 513.633 123.467C513.133 123.033 512.883 122.461 512.883 121.75H513.973C513.973 122.199 514.119 122.559 514.412 122.828C514.705 123.098 515.098 123.232 515.59 123.232C516.113 123.232 516.514 123.096 516.791 122.822C517.068 122.549 517.207 122.156 517.207 121.645C517.207 121.148 517.055 120.768 516.75 120.502C516.445 120.236 516.006 120.1 515.432 120.092H514.617V119.207Z" fill="black"/>
<path d="M615.07 121.598H613.523L613.055 124H612.217L612.686 121.598H611.285V120.795H612.838L613.242 118.721H611.73V117.906H613.4L613.881 115.469H614.719L614.238 117.906H615.785L616.266 115.469H617.109L616.629 117.906H617.824V118.721H616.471L616.066 120.795H617.385V121.598H615.914L615.445 124H614.602L615.07 121.598ZM613.676 120.795H615.223L615.627 118.721H614.08L613.676 120.795ZM624.281 124H618.691V123.221L621.645 119.939C622.082 119.443 622.383 119.041 622.547 118.732C622.715 118.42 622.799 118.098 622.799 117.766C622.799 117.32 622.664 116.955 622.395 116.67C622.125 116.385 621.766 116.242 621.316 116.242C620.777 116.242 620.357 116.396 620.057 116.705C619.76 117.01 619.611 117.436 619.611 117.982H618.527C618.527 117.197 618.779 116.562 619.283 116.078C619.791 115.594 620.469 115.352 621.316 115.352C622.109 115.352 622.736 115.561 623.197 115.979C623.658 116.393 623.889 116.945 623.889 117.637C623.889 118.477 623.354 119.477 622.283 120.637L619.998 123.115H624.281V124ZM627.006 119.207H627.82C628.332 119.199 628.734 119.064 629.027 118.803C629.32 118.541 629.467 118.188 629.467 117.742C629.467 116.742 628.969 116.242 627.973 116.242C627.504 116.242 627.129 116.377 626.848 116.646C626.57 116.912 626.432 117.266 626.432 117.707H625.348C625.348 117.031 625.594 116.471 626.086 116.025C626.582 115.576 627.211 115.352 627.973 115.352C628.777 115.352 629.408 115.564 629.865 115.99C630.322 116.416 630.551 117.008 630.551 117.766C630.551 118.137 630.43 118.496 630.188 118.844C629.949 119.191 629.623 119.451 629.209 119.623C629.678 119.771 630.039 120.018 630.293 120.361C630.551 120.705 630.68 121.125 630.68 121.621C630.68 122.387 630.43 122.994 629.93 123.443C629.43 123.893 628.779 124.117 627.979 124.117C627.178 124.117 626.525 123.9 626.021 123.467C625.521 123.033 625.271 122.461 625.271 121.75H626.361C626.361 122.199 626.508 122.559 626.801 122.828C627.094 123.098 627.486 123.232 627.979 123.232C628.502 123.232 628.902 123.096 629.18 122.822C629.457 122.549 629.596 122.156 629.596 121.645C629.596 121.148 629.443 120.768 629.139 120.502C628.834 120.236 628.395 120.1 627.82 120.092H627.006V119.207ZM635.73 124H634.641V116.775L632.455 117.578V116.594L635.561 115.428H635.73V124ZM643.061 120.25C642.834 120.52 642.562 120.736 642.246 120.9C641.934 121.064 641.59 121.146 641.215 121.146C640.723 121.146 640.293 121.025 639.926 120.783C639.562 120.541 639.281 120.201 639.082 119.764C638.883 119.322 638.783 118.836 638.783 118.305C638.783 117.734 638.891 117.221 639.105 116.764C639.324 116.307 639.633 115.957 640.031 115.715C640.43 115.473 640.895 115.352 641.426 115.352C642.27 115.352 642.934 115.668 643.418 116.301C643.906 116.93 644.15 117.789 644.15 118.879V119.195C644.15 120.855 643.822 122.068 643.166 122.834C642.51 123.596 641.52 123.986 640.195 124.006H639.984V123.092H640.213C641.107 123.076 641.795 122.844 642.275 122.395C642.756 121.941 643.018 121.227 643.061 120.25ZM641.391 120.25C641.754 120.25 642.088 120.139 642.393 119.916C642.701 119.693 642.926 119.418 643.066 119.09V118.656C643.066 117.945 642.912 117.367 642.604 116.922C642.295 116.477 641.904 116.254 641.432 116.254C640.955 116.254 640.572 116.438 640.283 116.805C639.994 117.168 639.85 117.648 639.85 118.246C639.85 118.828 639.988 119.309 640.266 119.688C640.547 120.062 640.922 120.25 641.391 120.25ZM649.207 124H648.117V116.775L645.932 117.578V116.594L649.037 115.428H649.207V124ZM657.732 120.361C657.732 121.631 657.516 122.574 657.082 123.191C656.648 123.809 655.971 124.117 655.049 124.117C654.139 124.117 653.465 123.816 653.027 123.215C652.59 122.609 652.363 121.707 652.348 120.508V119.061C652.348 117.807 652.564 116.875 652.998 116.266C653.432 115.656 654.111 115.352 655.037 115.352C655.955 115.352 656.631 115.646 657.064 116.236C657.498 116.822 657.721 117.729 657.732 118.955V120.361ZM656.648 118.879C656.648 117.961 656.52 117.293 656.262 116.875C656.004 116.453 655.596 116.242 655.037 116.242C654.482 116.242 654.078 116.451 653.824 116.869C653.57 117.287 653.439 117.93 653.432 118.797V120.531C653.432 121.453 653.564 122.135 653.83 122.576C654.1 123.014 654.506 123.232 655.049 123.232C655.584 123.232 655.98 123.025 656.238 122.611C656.5 122.197 656.637 121.545 656.648 120.654V118.879Z" fill="#F2EEEA"/>
</svg>
