<svg width="1375" height="1005" viewBox="0 0 1375 1005" fill="none" xmlns="http://www.w3.org/2000/svg">
<g filter="url(#filter0_d)">
<rect x="4" width="1367" height="997" fill="white"/>
</g>
<rect x="294.5" y="285.5" width="273" height="273" rx="136.5" fill="#FEBB86" stroke="url(#paint0_linear)"/>
<path d="M415.627 637.49V647H411.18V621.406H420.971C423.83 621.406 426.098 622.15 427.773 623.639C429.461 625.127 430.305 627.096 430.305 629.545C430.305 632.053 429.479 634.004 427.826 635.398C426.186 636.793 423.883 637.49 420.918 637.49H415.627ZM415.627 633.922H420.971C422.553 633.922 423.76 633.553 424.592 632.814C425.424 632.064 425.84 630.986 425.84 629.58C425.84 628.197 425.418 627.096 424.574 626.275C423.73 625.443 422.57 625.016 421.094 624.992H415.627V633.922ZM443.752 631.883C443.189 631.789 442.609 631.742 442.012 631.742C440.055 631.742 438.736 632.492 438.057 633.992V647H433.785V627.98H437.863L437.969 630.107C439 628.455 440.43 627.629 442.258 627.629C442.867 627.629 443.371 627.711 443.77 627.875L443.752 631.883ZM445.018 637.314C445.018 635.451 445.387 633.775 446.125 632.287C446.863 630.787 447.9 629.639 449.236 628.842C450.572 628.033 452.107 627.629 453.842 627.629C456.408 627.629 458.488 628.455 460.082 630.107C461.688 631.76 462.555 633.951 462.684 636.682L462.701 637.684C462.701 639.559 462.338 641.234 461.611 642.711C460.896 644.188 459.865 645.33 458.518 646.139C457.182 646.947 455.635 647.352 453.877 647.352C451.193 647.352 449.043 646.461 447.426 644.68C445.82 642.887 445.018 640.502 445.018 637.525V637.314ZM449.289 637.684C449.289 639.641 449.693 641.176 450.502 642.289C451.311 643.391 452.436 643.941 453.877 643.941C455.318 643.941 456.438 643.379 457.234 642.254C458.043 641.129 458.447 639.482 458.447 637.314C458.447 635.393 458.031 633.869 457.199 632.744C456.379 631.619 455.26 631.057 453.842 631.057C452.447 631.057 451.34 631.613 450.52 632.727C449.699 633.828 449.289 635.48 449.289 637.684ZM465.566 637.35C465.566 634.396 466.258 632.041 467.641 630.283C469.035 628.514 470.881 627.629 473.178 627.629C475.346 627.629 477.051 628.385 478.293 629.896L478.486 627.98H482.336V646.42C482.336 648.916 481.557 650.885 479.998 652.326C478.451 653.768 476.359 654.488 473.723 654.488C472.328 654.488 470.963 654.195 469.627 653.609C468.303 653.035 467.295 652.279 466.604 651.342L468.625 648.775C469.938 650.334 471.555 651.113 473.477 651.113C474.895 651.113 476.014 650.727 476.834 649.953C477.654 649.191 478.064 648.066 478.064 646.578V645.295C476.834 646.666 475.193 647.352 473.143 647.352C470.916 647.352 469.094 646.467 467.676 644.697C466.27 642.928 465.566 640.479 465.566 637.35ZM469.82 637.719C469.82 639.629 470.207 641.135 470.98 642.236C471.766 643.326 472.85 643.871 474.232 643.871C475.955 643.871 477.232 643.133 478.064 641.656V633.289C477.256 631.848 475.99 631.127 474.268 631.127C472.861 631.127 471.766 631.684 470.98 632.797C470.207 633.91 469.82 635.551 469.82 637.719ZM496.697 631.883C496.135 631.789 495.555 631.742 494.957 631.742C493 631.742 491.682 632.492 491.002 633.992V647H486.73V627.98H490.809L490.914 630.107C491.945 628.455 493.375 627.629 495.203 627.629C495.812 627.629 496.316 627.711 496.715 627.875L496.697 631.883ZM510.232 647C510.045 646.637 509.881 646.045 509.74 645.225C508.381 646.643 506.717 647.352 504.748 647.352C502.838 647.352 501.279 646.807 500.072 645.717C498.865 644.627 498.262 643.279 498.262 641.674C498.262 639.646 499.012 638.094 500.512 637.016C502.023 635.926 504.18 635.381 506.98 635.381H509.6V634.133C509.6 633.148 509.324 632.363 508.773 631.777C508.223 631.18 507.385 630.881 506.26 630.881C505.287 630.881 504.49 631.127 503.869 631.619C503.248 632.1 502.938 632.715 502.938 633.465H498.666C498.666 632.422 499.012 631.449 499.703 630.547C500.395 629.633 501.332 628.918 502.516 628.402C503.711 627.887 505.041 627.629 506.506 627.629C508.732 627.629 510.508 628.191 511.832 629.316C513.156 630.43 513.836 632 513.871 634.027V642.605C513.871 644.316 514.111 645.682 514.592 646.701V647H510.232ZM505.539 643.924C506.383 643.924 507.174 643.719 507.912 643.309C508.662 642.898 509.225 642.348 509.6 641.656V638.07H507.297C505.715 638.07 504.525 638.346 503.729 638.896C502.932 639.447 502.533 640.227 502.533 641.234C502.533 642.055 502.803 642.711 503.342 643.203C503.893 643.684 504.625 643.924 505.539 643.924ZM522.361 627.98L522.484 629.967C523.82 628.408 525.648 627.629 527.969 627.629C530.512 627.629 532.252 628.602 533.189 630.547C534.572 628.602 536.518 627.629 539.025 627.629C541.123 627.629 542.682 628.209 543.701 629.369C544.732 630.529 545.26 632.24 545.283 634.502V647H541.012V634.625C541.012 633.418 540.748 632.533 540.221 631.971C539.693 631.408 538.82 631.127 537.602 631.127C536.629 631.127 535.832 631.391 535.211 631.918C534.602 632.434 534.174 633.113 533.928 633.957L533.945 647H529.674V634.484C529.615 632.246 528.473 631.127 526.246 631.127C524.535 631.127 523.322 631.824 522.607 633.219V647H518.336V627.98H522.361ZM558.045 647.352C555.338 647.352 553.141 646.502 551.453 644.803C549.777 643.092 548.939 640.818 548.939 637.982V637.455C548.939 635.557 549.303 633.863 550.029 632.375C550.768 630.875 551.799 629.709 553.123 628.877C554.447 628.045 555.924 627.629 557.553 627.629C560.143 627.629 562.141 628.455 563.547 630.107C564.965 631.76 565.674 634.098 565.674 637.121V638.844H553.246C553.375 640.414 553.896 641.656 554.811 642.57C555.736 643.484 556.896 643.941 558.291 643.941C560.248 643.941 561.842 643.15 563.072 641.568L565.375 643.766C564.613 644.902 563.594 645.787 562.316 646.42C561.051 647.041 559.627 647.352 558.045 647.352ZM557.535 631.057C556.363 631.057 555.414 631.467 554.688 632.287C553.973 633.107 553.516 634.25 553.316 635.715H561.455V635.398C561.361 633.969 560.98 632.891 560.312 632.164C559.645 631.426 558.719 631.057 557.535 631.057Z" fill="#231911"/>
<path d="M304.002 680.941C305.068 680.941 305.953 680.631 306.656 680.01C307.359 679.389 307.734 678.621 307.781 677.707H311.807C311.76 678.891 311.391 679.998 310.699 681.029C310.008 682.049 309.07 682.857 307.887 683.455C306.703 684.053 305.426 684.352 304.055 684.352C301.395 684.352 299.285 683.49 297.727 681.768C296.168 680.045 295.389 677.666 295.389 674.631V674.191C295.389 671.297 296.162 668.982 297.709 667.248C299.256 665.502 301.365 664.629 304.037 664.629C306.299 664.629 308.139 665.291 309.557 666.615C310.986 667.928 311.736 669.656 311.807 671.801H307.781C307.734 670.711 307.359 669.814 306.656 669.111C305.965 668.408 305.08 668.057 304.002 668.057C302.619 668.057 301.553 668.561 300.803 669.568C300.053 670.564 299.672 672.082 299.66 674.121V674.807C299.66 676.869 300.029 678.41 300.768 679.43C301.518 680.438 302.596 680.941 304.002 680.941ZM314.232 674.314C314.232 672.451 314.602 670.775 315.34 669.287C316.078 667.787 317.115 666.639 318.451 665.842C319.787 665.033 321.322 664.629 323.057 664.629C325.623 664.629 327.703 665.455 329.297 667.107C330.902 668.76 331.77 670.951 331.898 673.682L331.916 674.684C331.916 676.559 331.553 678.234 330.826 679.711C330.111 681.188 329.08 682.33 327.732 683.139C326.396 683.947 324.85 684.352 323.092 684.352C320.408 684.352 318.258 683.461 316.641 681.68C315.035 679.887 314.232 677.502 314.232 674.525V674.314ZM318.504 674.684C318.504 676.641 318.908 678.176 319.717 679.289C320.525 680.391 321.65 680.941 323.092 680.941C324.533 680.941 325.652 680.379 326.449 679.254C327.258 678.129 327.662 676.482 327.662 674.314C327.662 672.393 327.246 670.869 326.414 669.744C325.594 668.619 324.475 668.057 323.057 668.057C321.662 668.057 320.555 668.613 319.734 669.727C318.914 670.828 318.504 672.48 318.504 674.684ZM339.545 664.98L339.668 666.967C341.004 665.408 342.832 664.629 345.152 664.629C347.695 664.629 349.436 665.602 350.373 667.547C351.756 665.602 353.701 664.629 356.209 664.629C358.307 664.629 359.865 665.209 360.885 666.369C361.916 667.529 362.443 669.24 362.467 671.502V684H358.195V671.625C358.195 670.418 357.932 669.533 357.404 668.971C356.877 668.408 356.004 668.127 354.785 668.127C353.812 668.127 353.016 668.391 352.395 668.918C351.785 669.434 351.357 670.113 351.111 670.957L351.129 684H346.857V671.484C346.799 669.246 345.656 668.127 343.43 668.127C341.719 668.127 340.506 668.824 339.791 670.219V684H335.52V664.98H339.545ZM366.053 674.314C366.053 672.451 366.422 670.775 367.16 669.287C367.898 667.787 368.936 666.639 370.271 665.842C371.607 665.033 373.143 664.629 374.877 664.629C377.443 664.629 379.523 665.455 381.117 667.107C382.723 668.76 383.59 670.951 383.719 673.682L383.736 674.684C383.736 676.559 383.373 678.234 382.646 679.711C381.932 681.188 380.9 682.33 379.553 683.139C378.217 683.947 376.67 684.352 374.912 684.352C372.229 684.352 370.078 683.461 368.461 681.68C366.855 679.887 366.053 677.502 366.053 674.525V674.314ZM370.324 674.684C370.324 676.641 370.729 678.176 371.537 679.289C372.346 680.391 373.471 680.941 374.912 680.941C376.354 680.941 377.473 680.379 378.27 679.254C379.078 678.129 379.482 676.482 379.482 674.314C379.482 672.393 379.066 670.869 378.234 669.744C377.414 668.619 376.295 668.057 374.877 668.057C373.482 668.057 372.375 668.613 371.555 669.727C370.734 670.828 370.324 672.48 370.324 674.684ZM407.836 682.137C406.582 683.613 404.801 684.352 402.492 684.352C400.43 684.352 398.865 683.748 397.799 682.541C396.744 681.334 396.217 679.588 396.217 677.303V664.98H400.488V677.25C400.488 679.664 401.49 680.871 403.494 680.871C405.568 680.871 406.969 680.127 407.695 678.639V664.98H411.967V684H407.941L407.836 682.137ZM420.334 664.98L420.457 666.967C421.793 665.408 423.621 664.629 425.941 664.629C428.484 664.629 430.225 665.602 431.162 667.547C432.545 665.602 434.49 664.629 436.998 664.629C439.096 664.629 440.654 665.209 441.674 666.369C442.705 667.529 443.232 669.24 443.256 671.502V684H438.984V671.625C438.984 670.418 438.721 669.533 438.193 668.971C437.666 668.408 436.793 668.127 435.574 668.127C434.602 668.127 433.805 668.391 433.184 668.918C432.574 669.434 432.146 670.113 431.9 670.957L431.918 684H427.646V671.484C427.588 669.246 426.445 668.127 424.219 668.127C422.508 668.127 421.295 668.824 420.58 670.219V684H416.309V664.98H420.334ZM459.006 684C458.818 683.637 458.654 683.045 458.514 682.225C457.154 683.643 455.49 684.352 453.521 684.352C451.611 684.352 450.053 683.807 448.846 682.717C447.639 681.627 447.035 680.279 447.035 678.674C447.035 676.646 447.785 675.094 449.285 674.016C450.797 672.926 452.953 672.381 455.754 672.381H458.373V671.133C458.373 670.148 458.098 669.363 457.547 668.777C456.996 668.18 456.158 667.881 455.033 667.881C454.061 667.881 453.264 668.127 452.643 668.619C452.021 669.1 451.711 669.715 451.711 670.465H447.439C447.439 669.422 447.785 668.449 448.477 667.547C449.168 666.633 450.105 665.918 451.289 665.402C452.484 664.887 453.814 664.629 455.279 664.629C457.506 664.629 459.281 665.191 460.605 666.316C461.93 667.43 462.609 669 462.645 671.027V679.605C462.645 681.316 462.885 682.682 463.365 683.701V684H459.006ZM454.312 680.924C455.156 680.924 455.947 680.719 456.686 680.309C457.436 679.898 457.998 679.348 458.373 678.656V675.07H456.07C454.488 675.07 453.299 675.346 452.502 675.896C451.705 676.447 451.307 677.227 451.307 678.234C451.307 679.055 451.576 679.711 452.115 680.203C452.666 680.684 453.398 680.924 454.312 680.924ZM480.1 664.98L480.223 666.967C481.559 665.408 483.387 664.629 485.707 664.629C488.25 664.629 489.99 665.602 490.928 667.547C492.311 665.602 494.256 664.629 496.764 664.629C498.861 664.629 500.42 665.209 501.439 666.369C502.471 667.529 502.998 669.24 503.021 671.502V684H498.75V671.625C498.75 670.418 498.486 669.533 497.959 668.971C497.432 668.408 496.559 668.127 495.34 668.127C494.367 668.127 493.57 668.391 492.949 668.918C492.34 669.434 491.912 670.113 491.666 670.957L491.684 684H487.412V671.484C487.354 669.246 486.211 668.127 483.984 668.127C482.273 668.127 481.061 668.824 480.346 670.219V684H476.074V664.98H480.1ZM518.93 682.137C517.676 683.613 515.895 684.352 513.586 684.352C511.523 684.352 509.959 683.748 508.893 682.541C507.838 681.334 507.311 679.588 507.311 677.303V664.98H511.582V677.25C511.582 679.664 512.584 680.871 514.588 680.871C516.662 680.871 518.062 680.127 518.789 678.639V664.98H523.061V684H519.035L518.93 682.137ZM531.955 684H527.684V657H531.955V684ZM540.832 667.055C542.227 665.438 543.99 664.629 546.123 664.629C550.178 664.629 552.234 666.943 552.293 671.572V684H548.021V671.73C548.021 670.418 547.734 669.492 547.16 668.953C546.598 668.402 545.766 668.127 544.664 668.127C542.953 668.127 541.676 668.889 540.832 670.412V684H536.561V657H540.832V667.055ZM565.002 684.352C562.295 684.352 560.098 683.502 558.41 681.803C556.734 680.092 555.896 677.818 555.896 674.982V674.455C555.896 672.557 556.26 670.863 556.986 669.375C557.725 667.875 558.756 666.709 560.08 665.877C561.404 665.045 562.881 664.629 564.51 664.629C567.1 664.629 569.098 665.455 570.504 667.107C571.922 668.76 572.631 671.098 572.631 674.121V675.844H560.203C560.332 677.414 560.854 678.656 561.768 679.57C562.693 680.484 563.854 680.941 565.248 680.941C567.205 680.941 568.799 680.15 570.029 678.568L572.332 680.766C571.57 681.902 570.551 682.787 569.273 683.42C568.008 684.041 566.584 684.352 565.002 684.352ZM564.492 668.057C563.32 668.057 562.371 668.467 561.645 669.287C560.93 670.107 560.473 671.25 560.273 672.715H568.412V672.398C568.318 670.969 567.938 669.891 567.27 669.164C566.602 668.426 565.676 668.057 564.492 668.057ZM585.92 668.883C585.357 668.789 584.777 668.742 584.18 668.742C582.223 668.742 580.904 669.492 580.225 670.992V684H575.953V664.98H580.031L580.137 667.107C581.168 665.455 582.598 664.629 584.426 664.629C585.035 664.629 585.539 664.711 585.938 664.875L585.92 668.883ZM588.223 679.5C589.02 679.5 589.635 679.729 590.068 680.186C590.502 680.631 590.719 681.193 590.719 681.873C590.719 682.541 590.502 683.098 590.068 683.543C589.635 683.977 589.02 684.193 588.223 684.193C587.461 684.193 586.857 683.977 586.412 683.543C585.967 683.109 585.744 682.553 585.744 681.873C585.744 681.193 585.961 680.631 586.395 680.186C586.828 679.729 587.438 679.5 588.223 679.5Z" fill="#231911"/>
<path d="M306.492 620.844H303.592V649.373H306.492V652.695H299.32V617.504H306.492V620.844ZM332.771 641.041H322.857L320.783 647H316.16L325.828 621.406H329.818L339.504 647H334.863L332.771 641.041ZM324.105 637.455H331.523L327.814 626.838L324.105 637.455ZM341.209 637.35C341.209 634.42 341.889 632.07 343.248 630.301C344.607 628.52 346.43 627.629 348.715 627.629C350.73 627.629 352.359 628.332 353.602 629.738V620H357.873V647H354.006L353.795 645.031C352.518 646.578 350.812 647.352 348.68 647.352C346.453 647.352 344.648 646.455 343.266 644.662C341.895 642.869 341.209 640.432 341.209 637.35ZM345.48 637.719C345.48 639.652 345.85 641.164 346.588 642.254C347.338 643.332 348.398 643.871 349.77 643.871C351.516 643.871 352.793 643.092 353.602 641.533V633.412C352.816 631.889 351.551 631.127 349.805 631.127C348.422 631.127 347.355 631.678 346.605 632.779C345.855 633.869 345.48 635.516 345.48 637.719ZM373.693 647C373.506 646.637 373.342 646.045 373.201 645.225C371.842 646.643 370.178 647.352 368.209 647.352C366.299 647.352 364.74 646.807 363.533 645.717C362.326 644.627 361.723 643.279 361.723 641.674C361.723 639.646 362.473 638.094 363.973 637.016C365.484 635.926 367.641 635.381 370.441 635.381H373.061V634.133C373.061 633.148 372.785 632.363 372.234 631.777C371.684 631.18 370.846 630.881 369.721 630.881C368.748 630.881 367.951 631.127 367.33 631.619C366.709 632.1 366.398 632.715 366.398 633.465H362.127C362.127 632.422 362.473 631.449 363.164 630.547C363.855 629.633 364.793 628.918 365.977 628.402C367.172 627.887 368.502 627.629 369.967 627.629C372.193 627.629 373.969 628.191 375.293 629.316C376.617 630.43 377.297 632 377.332 634.027V642.605C377.332 644.316 377.572 645.682 378.053 646.701V647H373.693ZM369 643.924C369.844 643.924 370.635 643.719 371.373 643.309C372.123 642.898 372.686 642.348 373.061 641.656V638.07H370.758C369.176 638.07 367.986 638.346 367.189 638.896C366.393 639.447 365.994 640.227 365.994 641.234C365.994 642.055 366.264 642.711 366.803 643.203C367.354 643.684 368.086 643.924 369 643.924ZM388.793 617.504H396V652.695H388.793V649.373H391.729V620.844H388.793V617.504Z" fill="#FF780F"/>
<path d="M756.602 708H754.717L747.559 697.043V708H745.674V693.781H747.559L754.736 704.787V693.781H756.602V708ZM766.172 708C766.068 707.792 765.983 707.421 765.918 706.887C765.078 707.759 764.076 708.195 762.91 708.195C761.868 708.195 761.012 707.902 760.342 707.316C759.678 706.724 759.346 705.975 759.346 705.07C759.346 703.97 759.762 703.117 760.596 702.512C761.436 701.9 762.614 701.594 764.131 701.594H765.889V700.764C765.889 700.132 765.7 699.631 765.322 699.26C764.945 698.882 764.388 698.693 763.652 698.693C763.008 698.693 762.467 698.856 762.031 699.182C761.595 699.507 761.377 699.901 761.377 700.363H759.561C759.561 699.836 759.746 699.328 760.117 698.84C760.495 698.345 761.003 697.954 761.641 697.668C762.285 697.382 762.992 697.238 763.76 697.238C764.977 697.238 765.931 697.544 766.621 698.156C767.311 698.762 767.669 699.598 767.695 700.666V705.529C767.695 706.499 767.819 707.271 768.066 707.844V708H766.172ZM763.174 706.623C763.74 706.623 764.277 706.477 764.785 706.184C765.293 705.891 765.661 705.51 765.889 705.041V702.873H764.473C762.259 702.873 761.152 703.521 761.152 704.816C761.152 705.383 761.341 705.826 761.719 706.145C762.096 706.464 762.581 706.623 763.174 706.623ZM767.422 693.312C767.422 694.016 767.22 694.585 766.816 695.021C766.419 695.458 765.921 695.676 765.322 695.676C765.055 695.676 764.824 695.643 764.629 695.578C764.434 695.513 764.176 695.38 763.857 695.178C763.545 694.976 763.317 694.855 763.174 694.816C763.037 694.771 762.878 694.748 762.695 694.748C762.428 694.748 762.201 694.852 762.012 695.061C761.823 695.262 761.729 695.523 761.729 695.842L760.518 695.773C760.518 695.077 760.713 694.501 761.104 694.045C761.501 693.589 762.002 693.361 762.607 693.361C762.835 693.361 763.04 693.394 763.223 693.459C763.405 693.524 763.652 693.651 763.965 693.84C764.277 694.029 764.515 694.152 764.678 694.211C764.847 694.27 765.033 694.299 765.234 694.299C765.514 694.299 765.745 694.188 765.928 693.967C766.117 693.745 766.211 693.488 766.211 693.195L767.422 693.312ZM770.049 702.619C770.049 701.584 770.251 700.653 770.654 699.826C771.064 698.999 771.631 698.361 772.354 697.912C773.083 697.463 773.913 697.238 774.844 697.238C776.283 697.238 777.445 697.736 778.33 698.732C779.222 699.729 779.668 701.053 779.668 702.707V702.834C779.668 703.863 779.469 704.787 779.072 705.607C778.682 706.421 778.118 707.056 777.383 707.512C776.654 707.967 775.814 708.195 774.863 708.195C773.431 708.195 772.269 707.697 771.377 706.701C770.492 705.705 770.049 704.387 770.049 702.746V702.619ZM771.865 702.834C771.865 704.006 772.135 704.947 772.676 705.656C773.223 706.366 773.952 706.721 774.863 706.721C775.781 706.721 776.51 706.363 777.051 705.646C777.591 704.924 777.861 703.915 777.861 702.619C777.861 701.46 777.585 700.523 777.031 699.807C776.484 699.084 775.755 698.723 774.844 698.723C773.952 698.723 773.232 699.077 772.686 699.787C772.139 700.497 771.865 701.512 771.865 702.834ZM789.346 694.875V697.434H791.318V698.83H789.346V705.383C789.346 705.806 789.434 706.125 789.609 706.34C789.785 706.548 790.085 706.652 790.508 706.652C790.716 706.652 791.003 706.613 791.367 706.535V708C790.892 708.13 790.43 708.195 789.98 708.195C789.173 708.195 788.564 707.951 788.154 707.463C787.744 706.975 787.539 706.281 787.539 705.383V698.83H785.615V697.434H787.539V694.875H789.346ZM797.822 708.195C796.39 708.195 795.225 707.727 794.326 706.789C793.428 705.845 792.979 704.585 792.979 703.01V702.678C792.979 701.63 793.177 700.695 793.574 699.875C793.978 699.048 794.538 698.404 795.254 697.941C795.977 697.473 796.758 697.238 797.598 697.238C798.971 697.238 800.039 697.691 800.801 698.596C801.562 699.501 801.943 700.796 801.943 702.482V703.234H794.785C794.811 704.276 795.114 705.119 795.693 705.764C796.279 706.402 797.021 706.721 797.92 706.721C798.558 706.721 799.098 706.59 799.541 706.33C799.984 706.07 800.371 705.725 800.703 705.295L801.807 706.154C800.921 707.515 799.593 708.195 797.822 708.195ZM797.598 698.723C796.868 698.723 796.257 698.99 795.762 699.523C795.267 700.051 794.961 700.793 794.844 701.75H800.137V701.613C800.085 700.695 799.837 699.986 799.395 699.484C798.952 698.977 798.353 698.723 797.598 698.723ZM805.742 697.434L805.791 698.605C806.566 697.694 807.611 697.238 808.926 697.238C810.404 697.238 811.41 697.805 811.943 698.938C812.295 698.43 812.751 698.02 813.311 697.707C813.877 697.395 814.544 697.238 815.312 697.238C817.63 697.238 818.809 698.465 818.848 700.92V708H817.041V701.027C817.041 700.272 816.868 699.709 816.523 699.338C816.178 698.96 815.599 698.771 814.785 698.771C814.115 698.771 813.558 698.973 813.115 699.377C812.673 699.774 812.415 700.311 812.344 700.988V708H810.527V701.076C810.527 699.54 809.775 698.771 808.271 698.771C807.087 698.771 806.276 699.276 805.84 700.285V708H804.033V697.434H805.742ZM833.066 706.955C832.363 707.782 831.331 708.195 829.971 708.195C828.844 708.195 827.985 707.87 827.393 707.219C826.807 706.561 826.51 705.591 826.504 704.309V697.434H828.311V704.26C828.311 705.861 828.962 706.662 830.264 706.662C831.644 706.662 832.562 706.148 833.018 705.119V697.434H834.824V708H833.105L833.066 706.955ZM839.277 697.434L839.326 698.605C840.101 697.694 841.146 697.238 842.461 697.238C843.939 697.238 844.945 697.805 845.479 698.938C845.83 698.43 846.286 698.02 846.846 697.707C847.412 697.395 848.079 697.238 848.848 697.238C851.165 697.238 852.344 698.465 852.383 700.92V708H850.576V701.027C850.576 700.272 850.404 699.709 850.059 699.338C849.714 698.96 849.134 698.771 848.32 698.771C847.65 698.771 847.093 698.973 846.65 699.377C846.208 699.774 845.951 700.311 845.879 700.988V708H844.062V701.076C844.062 699.54 843.311 698.771 841.807 698.771C840.622 698.771 839.811 699.276 839.375 700.285V708H837.568V697.434H839.277ZM861.641 708C861.536 707.792 861.452 707.421 861.387 706.887C860.547 707.759 859.544 708.195 858.379 708.195C857.337 708.195 856.481 707.902 855.811 707.316C855.146 706.724 854.814 705.975 854.814 705.07C854.814 703.97 855.231 703.117 856.064 702.512C856.904 701.9 858.083 701.594 859.6 701.594H861.357V700.764C861.357 700.132 861.169 699.631 860.791 699.26C860.413 698.882 859.857 698.693 859.121 698.693C858.477 698.693 857.936 698.856 857.5 699.182C857.064 699.507 856.846 699.901 856.846 700.363H855.029C855.029 699.836 855.215 699.328 855.586 698.84C855.964 698.345 856.471 697.954 857.109 697.668C857.754 697.382 858.46 697.238 859.229 697.238C860.446 697.238 861.4 697.544 862.09 698.156C862.78 698.762 863.138 699.598 863.164 700.666V705.529C863.164 706.499 863.288 707.271 863.535 707.844V708H861.641ZM858.643 706.623C859.209 706.623 859.746 706.477 860.254 706.184C860.762 705.891 861.13 705.51 861.357 705.041V702.873H859.941C857.728 702.873 856.621 703.521 856.621 704.816C856.621 705.383 856.81 705.826 857.188 706.145C857.565 706.464 858.05 706.623 858.643 706.623ZM875.195 706.721C875.84 706.721 876.403 706.525 876.885 706.135C877.367 705.744 877.633 705.256 877.686 704.67H879.395C879.362 705.275 879.154 705.852 878.77 706.398C878.385 706.945 877.871 707.382 877.227 707.707C876.589 708.033 875.911 708.195 875.195 708.195C873.757 708.195 872.611 707.717 871.758 706.76C870.911 705.796 870.488 704.481 870.488 702.814V702.512C870.488 701.483 870.677 700.568 871.055 699.768C871.432 698.967 871.973 698.345 872.676 697.902C873.385 697.46 874.222 697.238 875.186 697.238C876.37 697.238 877.354 697.593 878.135 698.303C878.923 699.012 879.342 699.934 879.395 701.066H877.686C877.633 700.383 877.373 699.823 876.904 699.387C876.442 698.944 875.869 698.723 875.186 698.723C874.268 698.723 873.555 699.055 873.047 699.719C872.546 700.376 872.295 701.33 872.295 702.58V702.922C872.295 704.139 872.546 705.077 873.047 705.734C873.548 706.392 874.264 706.721 875.195 706.721ZM880.947 702.619C880.947 701.584 881.149 700.653 881.553 699.826C881.963 698.999 882.529 698.361 883.252 697.912C883.981 697.463 884.811 697.238 885.742 697.238C887.181 697.238 888.343 697.736 889.229 698.732C890.12 699.729 890.566 701.053 890.566 702.707V702.834C890.566 703.863 890.368 704.787 889.971 705.607C889.58 706.421 889.017 707.056 888.281 707.512C887.552 707.967 886.712 708.195 885.762 708.195C884.329 708.195 883.167 707.697 882.275 706.701C881.39 705.705 880.947 704.387 880.947 702.746V702.619ZM882.764 702.834C882.764 704.006 883.034 704.947 883.574 705.656C884.121 706.366 884.85 706.721 885.762 706.721C886.68 706.721 887.409 706.363 887.949 705.646C888.49 704.924 888.76 703.915 888.76 702.619C888.76 701.46 888.483 700.523 887.93 699.807C887.383 699.084 886.654 698.723 885.742 698.723C884.85 698.723 884.131 699.077 883.584 699.787C883.037 700.497 882.764 701.512 882.764 702.834ZM894.541 697.434L894.6 698.762C895.407 697.746 896.462 697.238 897.764 697.238C899.997 697.238 901.123 698.498 901.143 701.018V708H899.336V701.008C899.329 700.246 899.154 699.683 898.809 699.318C898.47 698.954 897.939 698.771 897.217 698.771C896.631 698.771 896.117 698.928 895.674 699.24C895.231 699.553 894.886 699.963 894.639 700.471V708H892.832V697.434H894.541ZM906.318 694.875V697.434H908.291V698.83H906.318V705.383C906.318 705.806 906.406 706.125 906.582 706.34C906.758 706.548 907.057 706.652 907.48 706.652C907.689 706.652 907.975 706.613 908.34 706.535V708C907.865 708.13 907.402 708.195 906.953 708.195C906.146 708.195 905.537 707.951 905.127 707.463C904.717 706.975 904.512 706.281 904.512 705.383V698.83H902.588V697.434H904.512V694.875H906.318ZM916.934 708C916.829 707.792 916.745 707.421 916.68 706.887C915.84 707.759 914.837 708.195 913.672 708.195C912.63 708.195 911.774 707.902 911.104 707.316C910.439 706.724 910.107 705.975 910.107 705.07C910.107 703.97 910.524 703.117 911.357 702.512C912.197 701.9 913.376 701.594 914.893 701.594H916.65V700.764C916.65 700.132 916.462 699.631 916.084 699.26C915.706 698.882 915.15 698.693 914.414 698.693C913.77 698.693 913.229 698.856 912.793 699.182C912.357 699.507 912.139 699.901 912.139 700.363H910.322C910.322 699.836 910.508 699.328 910.879 698.84C911.257 698.345 911.764 697.954 912.402 697.668C913.047 697.382 913.753 697.238 914.521 697.238C915.739 697.238 916.693 697.544 917.383 698.156C918.073 698.762 918.431 699.598 918.457 700.666V705.529C918.457 706.499 918.581 707.271 918.828 707.844V708H916.934ZM913.936 706.623C914.502 706.623 915.039 706.477 915.547 706.184C916.055 705.891 916.423 705.51 916.65 705.041V702.873H915.234C913.021 702.873 911.914 703.521 911.914 704.816C911.914 705.383 912.103 705.826 912.48 706.145C912.858 706.464 913.343 706.623 913.936 706.623ZM923.408 703.996C923.421 703.221 923.509 702.609 923.672 702.16C923.835 701.711 924.167 701.213 924.668 700.666L925.947 699.348C926.494 698.729 926.768 698.065 926.768 697.355C926.768 696.672 926.589 696.138 926.23 695.754C925.872 695.363 925.352 695.168 924.668 695.168C924.004 695.168 923.47 695.344 923.066 695.695C922.663 696.047 922.461 696.519 922.461 697.111H920.654C920.667 696.057 921.042 695.207 921.777 694.562C922.52 693.911 923.483 693.586 924.668 693.586C925.898 693.586 926.855 693.918 927.539 694.582C928.229 695.24 928.574 696.145 928.574 697.297C928.574 698.436 928.047 699.559 926.992 700.666L925.928 701.721C925.452 702.248 925.215 703.007 925.215 703.996H923.408ZM923.33 707.092C923.33 706.799 923.418 706.555 923.594 706.359C923.776 706.158 924.043 706.057 924.395 706.057C924.746 706.057 925.013 706.158 925.195 706.359C925.378 706.555 925.469 706.799 925.469 707.092C925.469 707.385 925.378 707.629 925.195 707.824C925.013 708.013 924.746 708.107 924.395 708.107C924.043 708.107 923.776 708.013 923.594 707.824C923.418 707.629 923.33 707.385 923.33 707.092Z" fill="#231911"/>
<path d="M946.445 703.488C946.27 704.992 945.713 706.154 944.775 706.975C943.844 707.788 942.604 708.195 941.055 708.195C939.375 708.195 938.027 707.593 937.012 706.389C936.003 705.184 935.498 703.573 935.498 701.555V700.188C935.498 698.866 935.732 697.704 936.201 696.701C936.676 695.699 937.347 694.93 938.213 694.396C939.079 693.856 940.081 693.586 941.221 693.586C942.731 693.586 943.942 694.009 944.854 694.855C945.765 695.695 946.296 696.861 946.445 698.352H944.561C944.398 697.219 944.043 696.398 943.496 695.891C942.956 695.383 942.197 695.129 941.221 695.129C940.023 695.129 939.082 695.572 938.398 696.457C937.721 697.342 937.383 698.602 937.383 700.236V701.613C937.383 703.156 937.705 704.383 938.35 705.295C938.994 706.206 939.896 706.662 941.055 706.662C942.096 706.662 942.894 706.428 943.447 705.959C944.007 705.484 944.378 704.66 944.561 703.488H946.445ZM955.254 708C955.15 707.792 955.065 707.421 955 706.887C954.16 707.759 953.158 708.195 951.992 708.195C950.951 708.195 950.094 707.902 949.424 707.316C948.76 706.724 948.428 705.975 948.428 705.07C948.428 703.97 948.844 703.117 949.678 702.512C950.518 701.9 951.696 701.594 953.213 701.594H954.971V700.764C954.971 700.132 954.782 699.631 954.404 699.26C954.027 698.882 953.47 698.693 952.734 698.693C952.09 698.693 951.549 698.856 951.113 699.182C950.677 699.507 950.459 699.901 950.459 700.363H948.643C948.643 699.836 948.828 699.328 949.199 698.84C949.577 698.345 950.085 697.954 950.723 697.668C951.367 697.382 952.074 697.238 952.842 697.238C954.059 697.238 955.013 697.544 955.703 698.156C956.393 698.762 956.751 699.598 956.777 700.666V705.529C956.777 706.499 956.901 707.271 957.148 707.844V708H955.254ZM952.256 706.623C952.822 706.623 953.359 706.477 953.867 706.184C954.375 705.891 954.743 705.51 954.971 705.041V702.873H953.555C951.341 702.873 950.234 703.521 950.234 704.816C950.234 705.383 950.423 705.826 950.801 706.145C951.178 706.464 951.663 706.623 952.256 706.623ZM959.17 702.629C959.17 701.008 959.554 699.706 960.322 698.723C961.09 697.733 962.096 697.238 963.34 697.238C964.577 697.238 965.557 697.661 966.279 698.508V693H968.086V708H966.426L966.338 706.867C965.615 707.753 964.609 708.195 963.32 708.195C962.096 708.195 961.097 707.694 960.322 706.691C959.554 705.689 959.17 704.38 959.17 702.766V702.629ZM960.977 702.834C960.977 704.032 961.224 704.969 961.719 705.646C962.214 706.324 962.897 706.662 963.77 706.662C964.915 706.662 965.752 706.148 966.279 705.119V700.266C965.739 699.27 964.909 698.771 963.789 698.771C962.904 698.771 962.214 699.113 961.719 699.797C961.224 700.48 960.977 701.493 960.977 702.834ZM977.422 708C977.318 707.792 977.233 707.421 977.168 706.887C976.328 707.759 975.326 708.195 974.16 708.195C973.118 708.195 972.262 707.902 971.592 707.316C970.928 706.724 970.596 705.975 970.596 705.07C970.596 703.97 971.012 703.117 971.846 702.512C972.686 701.9 973.864 701.594 975.381 701.594H977.139V700.764C977.139 700.132 976.95 699.631 976.572 699.26C976.195 698.882 975.638 698.693 974.902 698.693C974.258 698.693 973.717 698.856 973.281 699.182C972.845 699.507 972.627 699.901 972.627 700.363H970.811C970.811 699.836 970.996 699.328 971.367 698.84C971.745 698.345 972.253 697.954 972.891 697.668C973.535 697.382 974.242 697.238 975.01 697.238C976.227 697.238 977.181 697.544 977.871 698.156C978.561 698.762 978.919 699.598 978.945 700.666V705.529C978.945 706.499 979.069 707.271 979.316 707.844V708H977.422ZM974.424 706.623C974.99 706.623 975.527 706.477 976.035 706.184C976.543 705.891 976.911 705.51 977.139 705.041V702.873H975.723C973.509 702.873 972.402 703.521 972.402 704.816C972.402 705.383 972.591 705.826 972.969 706.145C973.346 706.464 973.831 706.623 974.424 706.623ZM987.93 705.197C987.93 704.709 987.744 704.331 987.373 704.064C987.008 703.791 986.367 703.557 985.449 703.361C984.538 703.166 983.812 702.932 983.271 702.658C982.738 702.385 982.34 702.059 982.08 701.682C981.826 701.304 981.699 700.855 981.699 700.334C981.699 699.468 982.064 698.736 982.793 698.137C983.529 697.538 984.466 697.238 985.605 697.238C986.803 697.238 987.773 697.548 988.516 698.166C989.264 698.785 989.639 699.576 989.639 700.539H987.822C987.822 700.044 987.611 699.618 987.188 699.26C986.771 698.902 986.243 698.723 985.605 698.723C984.948 698.723 984.434 698.866 984.062 699.152C983.691 699.439 983.506 699.813 983.506 700.275C983.506 700.712 983.678 701.04 984.023 701.262C984.368 701.483 984.99 701.695 985.889 701.896C986.794 702.098 987.526 702.339 988.086 702.619C988.646 702.899 989.059 703.238 989.326 703.635C989.6 704.025 989.736 704.504 989.736 705.07C989.736 706.014 989.359 706.773 988.604 707.346C987.848 707.912 986.868 708.195 985.664 708.195C984.818 708.195 984.069 708.046 983.418 707.746C982.767 707.447 982.256 707.03 981.885 706.496C981.52 705.956 981.338 705.373 981.338 704.748H983.145C983.177 705.354 983.418 705.835 983.867 706.193C984.323 706.545 984.922 706.721 985.664 706.721C986.348 706.721 986.895 706.584 987.305 706.311C987.721 706.031 987.93 705.66 987.93 705.197ZM994.541 694.875V697.434H996.514V698.83H994.541V705.383C994.541 705.806 994.629 706.125 994.805 706.34C994.98 706.548 995.28 706.652 995.703 706.652C995.911 706.652 996.198 706.613 996.562 706.535V708C996.087 708.13 995.625 708.195 995.176 708.195C994.368 708.195 993.76 707.951 993.35 707.463C992.939 706.975 992.734 706.281 992.734 705.383V698.83H990.811V697.434H992.734V694.875H994.541ZM1003.74 699.055C1003.47 699.009 1003.17 698.986 1002.85 698.986C1001.67 698.986 1000.86 699.491 1000.44 700.5V708H998.633V697.434H1000.39L1000.42 698.654C1001.01 697.71 1001.85 697.238 1002.94 697.238C1003.29 697.238 1003.56 697.284 1003.74 697.375V699.055ZM1011.54 708C1011.44 707.792 1011.35 707.421 1011.29 706.887C1010.45 707.759 1009.45 708.195 1008.28 708.195C1007.24 708.195 1006.38 707.902 1005.71 707.316C1005.05 706.724 1004.72 705.975 1004.72 705.07C1004.72 703.97 1005.13 703.117 1005.97 702.512C1006.81 701.9 1007.99 701.594 1009.5 701.594H1011.26V700.764C1011.26 700.132 1011.07 699.631 1010.69 699.26C1010.32 698.882 1009.76 698.693 1009.02 698.693C1008.38 698.693 1007.84 698.856 1007.4 699.182C1006.97 699.507 1006.75 699.901 1006.75 700.363H1004.93C1004.93 699.836 1005.12 699.328 1005.49 698.84C1005.87 698.345 1006.37 697.954 1007.01 697.668C1007.66 697.382 1008.36 697.238 1009.13 697.238C1010.35 697.238 1011.3 697.544 1011.99 698.156C1012.68 698.762 1013.04 699.598 1013.07 700.666V705.529C1013.07 706.499 1013.19 707.271 1013.44 707.844V708H1011.54ZM1008.54 706.623C1009.11 706.623 1009.65 706.477 1010.16 706.184C1010.66 705.891 1011.03 705.51 1011.26 705.041V702.873H1009.84C1007.63 702.873 1006.52 703.521 1006.52 704.816C1006.52 705.383 1006.71 705.826 1007.09 706.145C1007.47 706.464 1007.95 706.623 1008.54 706.623ZM1019.66 702.697H1014.89V701.223H1019.66V702.697ZM1027.58 705.197C1027.58 704.709 1027.39 704.331 1027.02 704.064C1026.66 703.791 1026.02 703.557 1025.1 703.361C1024.19 703.166 1023.46 702.932 1022.92 702.658C1022.39 702.385 1021.99 702.059 1021.73 701.682C1021.47 701.304 1021.35 700.855 1021.35 700.334C1021.35 699.468 1021.71 698.736 1022.44 698.137C1023.18 697.538 1024.11 697.238 1025.25 697.238C1026.45 697.238 1027.42 697.548 1028.16 698.166C1028.91 698.785 1029.29 699.576 1029.29 700.539H1027.47C1027.47 700.044 1027.26 699.618 1026.84 699.26C1026.42 698.902 1025.89 698.723 1025.25 698.723C1024.6 698.723 1024.08 698.866 1023.71 699.152C1023.34 699.439 1023.15 699.813 1023.15 700.275C1023.15 700.712 1023.33 701.04 1023.67 701.262C1024.02 701.483 1024.64 701.695 1025.54 701.896C1026.44 702.098 1027.17 702.339 1027.73 702.619C1028.29 702.899 1028.71 703.238 1028.97 703.635C1029.25 704.025 1029.38 704.504 1029.38 705.07C1029.38 706.014 1029.01 706.773 1028.25 707.346C1027.5 707.912 1026.52 708.195 1025.31 708.195C1024.47 708.195 1023.72 708.046 1023.07 707.746C1022.42 707.447 1021.9 707.03 1021.53 706.496C1021.17 705.956 1020.99 705.373 1020.99 704.748H1022.79C1022.83 705.354 1023.07 705.835 1023.52 706.193C1023.97 706.545 1024.57 706.721 1025.31 706.721C1026 706.721 1026.54 706.584 1026.95 706.311C1027.37 706.031 1027.58 705.66 1027.58 705.197ZM1036.12 708.195C1034.69 708.195 1033.53 707.727 1032.63 706.789C1031.73 705.845 1031.28 704.585 1031.28 703.01V702.678C1031.28 701.63 1031.48 700.695 1031.88 699.875C1032.28 699.048 1032.84 698.404 1033.55 697.941C1034.28 697.473 1035.06 697.238 1035.9 697.238C1037.27 697.238 1038.34 697.691 1039.1 698.596C1039.86 699.501 1040.24 700.796 1040.24 702.482V703.234H1033.09C1033.11 704.276 1033.41 705.119 1033.99 705.764C1034.58 706.402 1035.32 706.721 1036.22 706.721C1036.86 706.721 1037.4 706.59 1037.84 706.33C1038.28 706.07 1038.67 705.725 1039 705.295L1040.11 706.154C1039.22 707.515 1037.89 708.195 1036.12 708.195ZM1035.9 698.723C1035.17 698.723 1034.56 698.99 1034.06 699.523C1033.57 700.051 1033.26 700.793 1033.14 701.75H1038.44V701.613C1038.39 700.695 1038.14 699.986 1037.7 699.484C1037.25 698.977 1036.65 698.723 1035.9 698.723Z" fill="#FF780F"/>
<path d="M720.668 329.428H714.506V334.467H721.664V336H712.631V321.781H721.566V323.324H714.506V327.895H720.668V329.428ZM727.475 330.697H722.709V329.223H727.475V330.697ZM730.941 325.434L730.99 326.605C731.765 325.694 732.81 325.238 734.125 325.238C735.603 325.238 736.609 325.805 737.143 326.938C737.494 326.43 737.95 326.02 738.51 325.707C739.076 325.395 739.743 325.238 740.512 325.238C742.829 325.238 744.008 326.465 744.047 328.92V336H742.24V329.027C742.24 328.272 742.068 327.709 741.723 327.338C741.378 326.96 740.798 326.771 739.984 326.771C739.314 326.771 738.757 326.973 738.314 327.377C737.872 327.774 737.615 328.311 737.543 328.988V336H735.727V329.076C735.727 327.54 734.975 326.771 733.471 326.771C732.286 326.771 731.475 327.276 731.039 328.285V336H729.232V325.434H730.941ZM753.305 336C753.201 335.792 753.116 335.421 753.051 334.887C752.211 335.759 751.208 336.195 750.043 336.195C749.001 336.195 748.145 335.902 747.475 335.316C746.811 334.724 746.479 333.975 746.479 333.07C746.479 331.97 746.895 331.117 747.729 330.512C748.568 329.9 749.747 329.594 751.264 329.594H753.021V328.764C753.021 328.132 752.833 327.631 752.455 327.26C752.077 326.882 751.521 326.693 750.785 326.693C750.141 326.693 749.6 326.856 749.164 327.182C748.728 327.507 748.51 327.901 748.51 328.363H746.693C746.693 327.836 746.879 327.328 747.25 326.84C747.628 326.345 748.135 325.954 748.773 325.668C749.418 325.382 750.124 325.238 750.893 325.238C752.11 325.238 753.064 325.544 753.754 326.156C754.444 326.762 754.802 327.598 754.828 328.666V333.529C754.828 334.499 754.952 335.271 755.199 335.844V336H753.305ZM750.307 334.623C750.873 334.623 751.41 334.477 751.918 334.184C752.426 333.891 752.794 333.51 753.021 333.041V330.873H751.605C749.392 330.873 748.285 331.521 748.285 332.816C748.285 333.383 748.474 333.826 748.852 334.145C749.229 334.464 749.714 334.623 750.307 334.623ZM759.623 336H757.816V325.434H759.623V336ZM757.67 322.631C757.67 322.338 757.758 322.09 757.934 321.889C758.116 321.687 758.383 321.586 758.734 321.586C759.086 321.586 759.353 321.687 759.535 321.889C759.717 322.09 759.809 322.338 759.809 322.631C759.809 322.924 759.717 323.168 759.535 323.363C759.353 323.559 759.086 323.656 758.734 323.656C758.383 323.656 758.116 323.559 757.934 323.363C757.758 323.168 757.67 322.924 757.67 322.631ZM764.486 336H762.68V321H764.486V336Z" fill="#8F99A8"/>
<g filter="url(#filter1_d)">
<rect x="773.521" y="443" width="248.604" height="57.3107" rx="28.6554" fill="#FF780F"/>
</g>
<path d="M876.674 471.159H869.924V475.729H877.846V478.553H866.409V461.491H877.823V464.338H869.924V468.405H876.674V471.159ZM882.803 465.874L882.909 467.338C883.815 466.206 885.03 465.639 886.553 465.639C887.897 465.639 888.897 466.034 889.553 466.823C890.21 467.612 890.546 468.792 890.561 470.362V478.553H887.174V470.444C887.174 469.725 887.018 469.206 886.706 468.885C886.393 468.557 885.874 468.393 885.147 468.393C884.194 468.393 883.479 468.799 883.003 469.612V478.553H879.616V465.874H882.803ZM897.194 462.756V465.874H899.362V468.358H897.194V474.686C897.194 475.155 897.284 475.491 897.464 475.694C897.643 475.897 897.987 475.999 898.495 475.999C898.87 475.999 899.202 475.971 899.491 475.917V478.483C898.827 478.686 898.143 478.788 897.44 478.788C895.065 478.788 893.854 477.588 893.807 475.19V468.358H891.956V465.874H893.807V462.756H897.194ZM908.374 469.049C907.913 468.987 907.506 468.956 907.155 468.956C905.874 468.956 905.034 469.389 904.635 470.256V478.553H901.249V465.874H904.448L904.542 467.385C905.221 466.221 906.163 465.639 907.366 465.639C907.741 465.639 908.092 465.69 908.421 465.792L908.374 469.049ZM917.01 478.553C916.854 478.249 916.741 477.87 916.671 477.417C915.85 478.331 914.784 478.788 913.471 478.788C912.229 478.788 911.198 478.428 910.378 477.709C909.565 476.991 909.159 476.084 909.159 474.991C909.159 473.647 909.655 472.616 910.647 471.897C911.647 471.178 913.089 470.815 914.971 470.807H916.53V470.081C916.53 469.495 916.378 469.026 916.073 468.674C915.776 468.323 915.303 468.147 914.655 468.147C914.085 468.147 913.635 468.284 913.307 468.557C912.987 468.831 912.827 469.206 912.827 469.682H909.44C909.44 468.948 909.667 468.268 910.12 467.643C910.573 467.018 911.214 466.53 912.042 466.178C912.87 465.819 913.799 465.639 914.831 465.639C916.393 465.639 917.631 466.034 918.546 466.823C919.467 467.604 919.928 468.706 919.928 470.127V475.624C919.936 476.827 920.104 477.737 920.432 478.354V478.553H917.01ZM914.21 476.198C914.71 476.198 915.171 476.088 915.592 475.87C916.014 475.643 916.327 475.342 916.53 474.967V472.788H915.264C913.569 472.788 912.667 473.374 912.557 474.545L912.546 474.745C912.546 475.167 912.694 475.514 912.991 475.788C913.288 476.061 913.694 476.198 914.21 476.198ZM929.655 469.049C929.194 468.987 928.788 468.956 928.436 468.956C927.155 468.956 926.315 469.389 925.917 470.256V478.553H922.53V465.874H925.729L925.823 467.385C926.503 466.221 927.444 465.639 928.647 465.639C929.022 465.639 929.374 465.69 929.702 465.792L929.655 469.049Z" fill="white"/>
<g filter="url(#filter2_d)">
<rect x="706" y="567" width="95" height="101" rx="47.5" fill="#FF780F"/>
</g>
<g filter="url(#filter3_d)">
<rect x="850" y="567" width="95" height="100" rx="47.5" fill="#FF780F"/>
</g>
<g filter="url(#filter4_d)">
<rect x="987" y="567" width="96" height="100" rx="48" fill="#FF780F"/>
</g>
<path d="M891.588 537.35C891.588 538.743 891.354 539.96 890.885 541.002C890.416 542.037 889.752 542.828 888.893 543.375C888.033 543.922 887.031 544.195 885.885 544.195C884.765 544.195 883.772 543.922 882.906 543.375C882.04 542.822 881.367 542.037 880.885 541.021C880.41 539.999 880.165 538.818 880.152 537.477V536.451C880.152 535.084 880.39 533.876 880.865 532.828C881.34 531.78 882.011 530.979 882.877 530.426C883.749 529.866 884.745 529.586 885.865 529.586C887.005 529.586 888.007 529.863 888.873 530.416C889.745 530.963 890.416 531.76 890.885 532.809C891.354 533.85 891.588 535.064 891.588 536.451V537.35ZM889.723 536.432C889.723 534.745 889.384 533.453 888.707 532.555C888.03 531.65 887.083 531.197 885.865 531.197C884.68 531.197 883.746 531.65 883.062 532.555C882.385 533.453 882.037 534.703 882.018 536.305V537.35C882.018 538.984 882.359 540.27 883.043 541.207C883.733 542.138 884.68 542.604 885.885 542.604C887.096 542.604 888.033 542.164 888.697 541.285C889.361 540.4 889.703 539.133 889.723 537.486V536.432ZM904.41 529.781V539.449C904.404 540.79 903.98 541.887 903.141 542.74C902.307 543.593 901.174 544.072 899.742 544.176L899.244 544.195C897.688 544.195 896.448 543.775 895.523 542.936C894.599 542.096 894.13 540.94 894.117 539.469V529.781H895.973V539.41C895.973 540.439 896.256 541.24 896.822 541.812C897.389 542.379 898.196 542.662 899.244 542.662C900.305 542.662 901.116 542.379 901.676 541.812C902.242 541.246 902.525 540.449 902.525 539.42V529.781H904.41Z" fill="#8F99A8"/>
<line x1="706" y1="536" x2="869" y2="536" stroke="#231911" stroke-width="2"/>
<line x1="921" y1="536" x2="1084" y2="536" stroke="#231911" stroke-width="2"/>
<path d="M384.479 502.708C383.724 500.744 382.97 498.779 382.113 496.55C385.811 495.797 388.466 496.13 388.778 501.095C389.137 501.015 389.496 500.935 389.855 500.855C390.795 498.691 391.734 496.527 392.819 494.03C390.093 493.294 385.844 496.359 385.62 491.001C385.583 490.128 388.31 489.125 390.272 487.848C389.696 484.533 380.407 486.364 384.896 478.27C386.629 480.013 388.21 481.604 389.719 483.121C390.681 482.393 392.007 481.391 393.332 480.388C393.577 482.792 393.821 485.195 394.129 488.23C394.761 487.356 395.512 486.264 396.316 485.217C397.413 483.788 398.33 481.551 399.712 481.143C403.653 479.98 404.463 477.111 404.758 473.464C404.902 471.701 405.473 469.977 405.979 467.646C404.877 467.575 403.619 467.493 402.597 467.427C402.791 469.734 402.936 471.464 403.082 473.194C401.586 473.194 400.092 473.194 398.515 473.194C398.86 471.359 399.158 469.768 399.657 467.108C396.784 470.099 394.615 472.357 392.16 474.912C390.545 470.392 390.545 470.392 397.037 464.884C395.639 464.364 394.507 463.832 393.322 463.537C392.323 463.288 391.263 463.313 389.467 463.145C393.559 458.859 396.431 460.528 399.248 463.291C400.99 465.001 402.473 465.744 402.544 462.119C407.419 461.384 406.492 467.186 409.256 469.003C409.225 461.926 408.475 461.257 402.46 459.841C400.595 459.402 398.673 457.591 397.508 455.855C396.131 453.801 395.475 451.176 394.635 448.749C393.298 444.889 391.977 441.093 387.4 440.395C386.907 440.32 386.362 439.928 386.024 439.515C381.352 433.811 376.677 428.109 372.076 422.341C369.108 418.62 366.658 414.316 363.269 411.118C357.099 405.295 355.856 398.63 358.838 390.867C361.576 383.739 366.402 379.258 373.845 378.138C379.7 377.256 384.822 378.254 389.012 383.789C392.957 373.8 398.922 365.865 406.866 359.803C417.242 351.885 428.695 347.46 441.748 348.346C445.269 348.585 448.855 347.749 452.409 347.385C454.969 347.122 457.525 346.804 460.086 346.548C460.885 346.468 462.199 346.835 462.42 346.446C464.529 342.745 466.087 345.721 467.777 346.839C468.309 347.191 468.766 347.674 469.641 348.428C469.904 346.055 470.11 344.194 470.316 342.334C470.744 342.103 471.173 341.87 471.601 341.639C473.606 344.239 475.611 346.839 477.559 349.366C478.394 347.795 479.306 346.08 480.218 344.364C480.775 344.495 481.331 344.627 481.888 344.757C481.594 348.525 481.301 352.292 481.001 356.14C482.965 355.045 484.956 353.934 486.937 352.83C486.525 351.659 485.998 350.165 485.184 347.858C487.293 348.614 488.418 349.016 490.648 349.815C489.627 345.952 488.762 342.681 487.898 339.409C488.416 339.177 488.933 338.945 489.451 338.714C490.586 340.332 491.722 341.95 492.891 343.617C493.368 340.797 493.837 338.016 494.307 335.235C494.838 335.201 495.37 335.168 495.902 335.134C496.266 337.356 496.63 339.577 496.929 341.396C498.876 338.679 500.959 335.773 503.043 332.867C503.674 333.322 504.306 333.776 504.938 334.23C503.187 336.837 501.436 339.445 499.686 342.052C499.832 342.26 499.979 342.469 500.126 342.677C501.493 341.908 502.859 341.139 504.238 340.364C507.566 347.065 510.709 353.392 514.13 360.278C514.242 360.302 515.246 360.518 516.251 360.734C515.816 361.819 515.542 363.025 514.914 363.963C513.758 365.69 512.394 367.259 511.535 369.554C512.43 369.263 513.325 368.973 514.224 368.682C515.163 372.37 513.721 374.151 507.182 376.953C508.968 377.525 510.351 377.968 511.734 378.411C511.791 378.907 511.847 379.404 511.904 379.9C509.93 380.386 507.956 380.872 506.062 381.338C509.632 385.55 511.591 391.036 510.876 397.569C510.759 398.636 512.297 399.908 513.272 401.391C512.312 402.164 511.301 402.976 510.199 403.863C511.419 404.96 513.014 405.817 513.671 407.182C514.138 408.153 513.339 409.81 513.138 410.976C514.089 413.097 515.134 415.426 516.179 417.755C514.673 417.825 513.167 417.896 511.366 417.98C511.366 419.835 511.366 422.028 511.366 425.468C509.222 423.528 507.805 422.245 506.399 420.972C505.173 422.986 503.88 425.093 502.602 427.212C501.052 429.783 499.307 430.8 497.2 427.638C492.546 432.436 488.146 436.971 483.544 441.715C484.859 448.92 486.264 456.931 487.827 464.908C488.121 466.413 488.834 467.95 489.712 469.184C496.844 479.203 500.341 490.755 502.723 502.849C503.112 504.823 504.128 507.068 505.535 508.339C514.539 516.471 509.245 519.074 507.255 513.287C506.847 513.391 506.439 513.494 506.032 513.597C506.032 514.68 506.032 515.763 506.032 516.845C505.789 516.878 505.546 516.91 505.302 516.942C504.571 514.582 503.84 512.221 503.109 509.861C502.907 509.889 502.704 509.917 502.502 509.946C502.502 512.723 502.502 515.5 502.502 518.276C502.103 518.302 501.704 518.328 501.304 518.354C501.103 513.901 500.901 509.448 500.7 504.994C500.397 505.012 500.093 505.03 499.79 505.048C499.79 510.202 498.98 515.546 499.998 520.462C501.222 526.365 489.32 533.444 485.87 526.167C486.189 535.279 486.576 532.828 491.025 539.509C488.837 540.598 488.837 540.598 488.837 540.598C484.739 543.129 482.409 543.587 481.976 543.806C468.966 549.78 462.583 550.203 454.255 552.034C452.457 552.429 450.672 545.922 449.473 543.835C448.031 545.651 446.656 547.381 445.726 548.553C447.218 551.673 447.256 553.716 444.068 553.54C440.525 553.88 440.183 551.858 441.231 549.862C439.733 547.941 437.941 545.644 436.023 543.185C434.456 544.553 432.932 545.883 431.838 546.837C433.816 548.566 435.914 550.399 438.012 552.232C437.915 552.685 437.645 553.64 437.548 554.093C433.267 554.093 430.287 555.132 423.773 554.235C425.604 552.374 426.984 550.505 428.553 548.911C425.222 548.617 422.561 544.198 419.543 549.023C420.378 550.857 417.78 553.239 415.784 553.262C411.573 553.31 382.558 550.208 377.086 543.746C377.086 543.746 383.414 546.243 377.086 543.746C372.749 542.971 366.21 538.863 367.582 539.569C373.857 532.21 382.654 525.647 384.853 514.98C381.162 514.899 379.796 518.085 378.089 520.613C376.401 523.112 374.948 525.788 372.747 528.061C373.027 526.928 373.307 525.796 373.754 523.984C369.65 528.346 366.231 532.377 362.394 535.89C361.893 535.612 364.011 534.081 362.394 535.89C361.467 537.009 367.525 529.836 362.394 535.89C361.245 537.246 359.993 534.969 356.771 533.467C373.18 520.422 362.19 534.56 356.771 533.467C367.488 521.705 368.869 519.867 381.794 510.679C384.626 508.666 384.85 505.777 384.376 502.606L384.479 502.708ZM420.981 464.38C415.765 466.325 412.14 472.556 413.145 477.318C415.679 473.832 418.395 470.174 420.986 466.42C421.281 465.99 420.876 465.016 420.796 464.294C425.07 462.716 426.814 458.741 428.687 454.88C427.967 455.241 427.247 455.602 426.526 455.964C429.494 452.841 432.462 449.719 435.421 446.608C429.769 439.247 431.501 430.767 435.666 423.033C439.5 415.915 444.559 409.974 444.535 400.629C444.523 395.907 445.01 392.407 441.236 389.494C440.82 389.174 440.56 388.598 440.301 388.098C440.227 387.954 440.408 387.66 440.475 387.423C441.122 387.708 441.765 387.991 443.249 388.646C441.265 385.357 439.758 382.858 437.776 379.574C439.852 381.148 441.184 382.159 442.516 383.168C442.784 382.829 443.052 382.489 443.32 382.149C438.348 377.197 433.375 372.245 428.393 367.284C435.443 370.211 442.492 373.138 449.543 376.066C449.369 374.714 448.762 373.717 447.907 373.311C441.724 370.383 435.654 367.022 429.226 364.901C423.893 363.142 418.14 362.438 412.534 362.165C409.896 362.037 407.167 364.022 404.479 365.049C405.041 366.171 405.187 366.27 405.287 366.232C405.918 365.992 406.526 365.671 407.167 365.47C414.528 363.167 421.699 363.282 428.539 367.428C427.749 367.219 426.958 367.016 426.17 366.8C411.318 362.736 401.146 366.986 394.682 380.302C393.121 383.517 391.183 387.001 392.882 391C399.695 389.437 401.18 389.888 402.31 393.708C392.197 392.912 388.919 395.097 390.44 401.362C392.929 400.742 395.452 399.497 397.878 399.681C400.337 399.866 402.701 401.462 405.233 402.492C403.558 398.032 399.324 396.719 393.389 398.406C396.309 395.728 399.587 396.182 403.023 397.262C405.554 398.058 406.721 399.752 406.084 402.391C405.336 405.488 404.235 408.488 403.287 411.53C403.062 411.451 402.838 411.372 402.613 411.293C402.924 409.18 403.236 407.066 403.378 406.101C400.26 405.016 397.844 404.175 394.923 403.158C394.638 404.091 394.198 405.528 393.737 407.037C391.594 406.632 388.413 404.534 388.312 409.012C388.173 415.129 387.947 421.453 389.199 427.343C390.77 434.735 393.768 441.789 396.207 448.968C399.063 457.374 401.982 458.95 410.145 456.657C410.434 456.576 410.796 456.785 411.399 456.922C410.569 457.734 409.963 458.327 409.357 458.92C409.472 459.164 409.587 459.407 409.702 459.651C412.407 458.564 415.112 457.477 418.261 456.211C416.702 458.407 415.581 459.985 414.46 461.564C414.791 461.861 415.122 462.158 415.453 462.454C416.306 462.056 417.158 461.657 418.01 461.259C416.411 465.079 420.425 462.874 420.981 464.38ZM461.559 403.908C459.578 403.762 457.598 403.616 455.617 403.47C455.642 403.668 455.666 403.865 455.691 404.063C456.873 404.624 458.054 405.185 459.235 405.746C459.125 406.059 459.014 406.372 458.903 406.685C457.558 406.549 456.213 406.413 453.717 406.16C456.702 410.843 459.14 414.668 461.578 418.493C461.737 418.443 461.897 418.393 462.057 418.343C461.424 415.934 460.791 413.525 460.159 411.116C460.513 411.002 460.868 410.888 461.222 410.774C462.135 413.511 463.05 416.248 463.964 418.985C464.225 417.181 464.195 415.386 463.793 413.691C463.385 411.972 462.61 410.351 461.996 408.687C462.243 408.569 462.49 408.451 462.737 408.333C463.743 410.318 464.749 412.303 465.904 414.581C467.092 410.006 465.103 407.111 462.494 404.464C464.392 405.42 466.289 406.377 468.314 407.397C467.588 405.959 466.854 404.506 466.12 403.053C466.392 402.888 466.663 402.723 466.935 402.558C468.143 404.282 469.35 406.005 470.552 407.723C469.605 399.583 467.295 397.864 459.132 399.88C460.69 400.248 461.651 400.474 463.519 400.915C461.914 401.233 461.219 401.37 460.21 401.57C460.738 402.486 461.148 403.197 461.559 403.908ZM457.751 382.801C457.482 384.805 457.212 386.809 456.943 388.813C457.116 388.783 457.289 388.753 457.462 388.722C458.719 386.166 459.976 383.61 461.233 381.053C461.379 381.158 461.525 381.262 461.671 381.367C460.911 383.839 460.15 386.31 459.39 388.781C459.747 388.886 460.105 388.991 460.462 389.096C461.414 387.09 462.366 385.084 463.318 383.078C463.531 383.183 463.744 383.288 463.956 383.393C463.508 385.069 463.059 386.745 462.541 388.681C465.131 389.158 467.207 389.541 469.653 389.991C467.618 386.082 465.012 382.653 468.578 378.736C467.779 383.291 468.66 386.817 472.24 390.216C474.375 392.242 476.053 391.922 477.324 390.873C478.464 389.931 478.853 387.619 479.037 385.849C479.137 384.881 478.125 383.782 477.159 381.816C482.646 387.128 482.018 389.796 475.251 394.711C477.562 394.954 479.874 395.196 482.112 395.43C485.308 389.664 486.659 383.923 484.042 377.615C484.476 377.582 484.91 377.549 485.344 377.516C485.862 380.887 486.38 384.259 486.893 387.592C489.678 386.329 489.678 386.329 487.622 379.909C488.386 379.273 489.6 378.555 489.517 378.289C488.27 374.274 490.838 368.753 485.464 366.352C485.403 365.653 485.588 364.568 485.24 364.315C482.67 362.45 480.051 360.642 477.331 359.041C475.627 358.038 473.366 357.85 471.98 356.546C469.139 353.876 468.025 355.414 466.995 358.307C466.17 357.345 465.401 356.449 464.454 355.345C463.62 356.645 462.953 357.686 462.2 358.86C461.369 358.509 460.537 358.157 459.447 357.697C459.102 358.853 458.8 359.866 458.47 360.975C461.046 361.978 463.537 362.639 465.729 363.89C467.849 365.099 469.662 366.914 471.596 368.452C471.716 368.226 471.969 367.749 472.222 367.272C472.539 367.365 472.856 367.458 473.173 367.551C472.849 369.567 472.526 371.583 472.147 373.952C469.144 371.541 466.972 369.796 464.799 368.052C464.612 368.265 464.426 368.477 464.239 368.689C464.927 369.705 465.615 370.721 466.377 371.845C464.969 372.136 463.82 372.373 461.493 372.854C463.917 374.066 465.197 374.705 466.678 375.445C464.598 376.834 462.916 377.957 461.235 379.08C461.558 377.836 462.489 376.278 462.09 375.408C460.905 372.823 462.19 367.538 465.081 365.846C462.296 364.225 459.794 362.246 456.986 361.344C455.484 360.862 452.291 360.474 452.912 364.579C453.091 365.76 452.285 367.127 451.87 368.387C451.446 369.676 450.948 370.938 450.483 372.213C450.71 372.286 450.937 372.36 451.165 372.433C452.772 370.84 454.38 369.246 455.988 367.653C456.399 368.113 456.81 368.573 457.221 369.032C455.791 369.718 454.361 370.403 452.931 371.089C453.24 371.455 453.549 371.822 453.858 372.189C454.962 372.327 456.066 372.466 456.643 372.538C455.193 374.232 453.644 375.888 452.279 377.699C451.536 378.686 450.402 380.671 450.652 380.941C451.727 382.101 453.251 382.79 454.392 383.511C454.473 385.222 454.571 387.292 454.699 389.992C456.004 386.918 456.878 384.859 457.751 382.801ZM407.76 547.221C415.681 536.368 420.98 532.286 432.538 525.648C426.867 531.754 421.197 537.86 415.526 543.967C415.953 544.422 416.379 544.877 416.805 545.333C418.865 543.273 420.925 541.212 423.097 539.041C423.316 539.418 423.608 539.92 424.309 541.128C428.846 535.99 433.247 531.007 437.648 526.024C437.785 526.15 437.922 526.276 438.059 526.402C437.278 527.888 436.497 529.374 435.715 530.861C435.917 530.999 436.117 531.137 436.319 531.276C438.387 528.885 440.456 526.495 442.524 524.104C442.894 524.525 443.264 524.946 443.634 525.368C438.063 530.702 432.492 536.035 426.647 541.631C427.021 542.223 427.644 543.206 428.343 544.31C430.769 542.405 432.926 540.712 435.149 538.966C438.12 541.608 440.947 544.122 443.611 546.491C445.155 544.621 447.052 542.322 449.188 539.736C451.758 543.173 453.846 545.966 456.274 549.213C455.964 546.717 455.716 544.72 455.468 542.724C455.664 542.667 455.86 542.609 456.057 542.552C456.565 543.483 457.074 544.414 458.041 546.184C457.846 542.789 457.712 540.46 457.539 537.461C460.172 539.509 457.707 546.188 463.506 542.717C464.621 545.236 466.704 545.843 466.466 543.737C466.848 543.644 467.23 543.551 467.611 543.458C468.835 546.369 466.55 541.123 470.609 534.574C472.68 541.226 472.848 534.994 470.452 525.816C470.801 525.715 471.15 525.614 471.499 525.513C473.246 531.911 474.995 538.309 476.742 544.708C477.073 544.611 477.404 544.515 477.735 544.418C476.903 531.502 470.38 520.056 468.685 507.351C470.937 514.164 473.189 520.976 475.441 527.789C475.89 527.622 476.339 527.456 476.787 527.29C474.663 520.461 472.428 513.668 470.442 506.795C467.996 498.33 465.79 489.788 463.391 481.307C463.067 480.164 462.224 479.186 461.622 478.132C460.843 478.836 460.064 479.539 458.936 480.56C459.607 475.769 460.255 471.152 460.902 466.535C460.679 466.447 460.456 466.36 460.233 466.273C459.203 468.631 458.174 470.99 457.387 472.792C456.084 472.792 454.724 472.34 454.086 472.87C451.24 475.23 448.806 474.235 445.891 471.242C450.143 469.226 454.394 467.211 458.646 465.195C458.511 464.798 458.375 464.401 458.24 464.004C456.398 464.375 454.554 464.747 452.214 465.219C452.88 463.867 453.32 462.976 453.891 461.816C450.971 464.275 448.39 466.508 445.747 468.657C443.094 470.814 440.008 472.519 437.77 475.072C433.24 480.241 429.121 485.82 424.899 491.288C422.103 494.909 418.601 497.639 415.334 500.693C408.083 507.471 401.925 515.549 395.028 522.782C392.507 525.426 389.088 527.082 386.205 529.37C384.524 530.703 383.095 532.395 381.553 533.925C381.753 534.135 381.953 534.346 382.153 534.556C383.318 533.841 384.484 533.127 385.65 532.411C385.883 532.733 386.116 533.055 386.35 533.377C383.261 536.833 380.172 540.29 377.084 543.746C377.232 543.957 407.101 545.849 407.76 547.221ZM475.434 420.478C475.611 418.499 475.805 416.327 475.936 414.854C477.131 417.223 478.231 419.74 479.698 421.987C479.944 422.364 481.775 421.573 482.954 421.303C481.83 419.311 480.736 418.048 480.405 416.591C480.101 415.246 480.147 413.223 480.906 412.366C481.642 411.536 483.546 411.465 484.816 411.726C485.665 411.9 486.24 413.32 487.061 414.02C487.489 414.386 488.351 414.712 488.711 414.491C489.097 414.254 489.452 413.17 489.254 412.778C488.195 410.679 487.186 408.453 485.677 406.753C485.024 406.017 483.076 406.017 481.961 406.429C480.004 407.152 478.219 408.421 476.393 409.519C475.075 410.311 473.462 410.92 472.607 412.116C471.589 413.541 471.151 415.478 470.665 417.256C470.55 417.678 471.121 418.595 471.589 418.856C472.754 419.507 474.041 419.912 475.434 420.478ZM381.984 397.368C376.761 400.001 375.15 407.999 377.803 416.842C378.682 414.048 379.443 411.626 380.205 409.205C380.385 409.263 380.564 409.322 380.744 409.381C380.55 412.045 380.356 414.709 380.162 417.372C380.355 417.377 380.548 417.382 380.741 417.387C381.499 415.097 382.256 412.806 383.014 410.516C383.286 410.609 383.558 410.702 383.83 410.795C383.403 412.918 382.976 415.04 382.549 417.162C382.77 417.26 382.989 417.358 383.21 417.456C383.762 416.71 384.315 415.965 384.982 415.066C385.155 416.029 385.302 416.844 385.331 417.011C389.866 411.159 383.074 406.28 384.195 399.753C382.452 401.405 381.369 402.431 380.287 403.457C380.028 403.236 379.771 403.016 379.512 402.796C380.246 401.183 380.981 399.57 381.984 397.368ZM451.251 364.517C451.133 364 451.016 363.482 450.898 362.964C425.464 354.085 418.04 353.371 412.816 358.306C417.883 358.507 423.978 358.063 429.814 359.167C435.897 360.318 441.71 363.033 447.691 364.884C448.753 365.213 450.058 364.662 451.251 364.517ZM374.555 382.711C374.528 382.25 374.501 381.789 374.473 381.328C377.149 381.673 379.826 382.019 382.474 382.361C377.778 377.374 365.945 381.341 363.179 388.598C364.941 387.237 366.891 385.729 368.841 384.221C369.039 384.493 369.237 384.766 369.434 385.038C367.83 387.278 366.225 389.518 364.621 391.758C364.91 392.02 365.198 392.282 365.486 392.544C366.672 391.606 367.858 390.668 369.691 389.217C368.9 391.439 368.387 392.882 367.973 394.045C370.98 391.521 373.973 389.006 376.936 386.519C376.173 386.293 375.372 386.055 374.571 385.817C374.643 385.408 374.715 385 374.788 384.592C377.1 385.077 379.412 385.562 381.724 386.047C381.796 385.739 381.868 385.431 381.941 385.122C379.479 384.319 377.017 383.515 374.555 382.711ZM508.847 398.917C510.241 390.635 508.993 386.744 504.003 383.182C504.494 384.641 504.894 385.827 505.293 387.013C504.846 387.406 504.4 387.799 503.953 388.192C503.217 386.439 502.482 384.685 501.747 382.932C501.416 383.269 501.087 383.607 500.757 383.944C502.177 386.93 503.596 389.916 505.016 392.901C504.823 393.022 504.631 393.142 504.438 393.262C503.921 392.784 503.404 392.306 502.423 391.402C502.92 394.182 503.311 396.369 503.5 397.429C505.073 398.291 505.847 398.715 506.767 399.218C506.767 396.45 506.767 393.786 506.767 391.123C507.08 391.079 507.392 391.037 507.706 390.993C508.053 393.41 508.401 395.827 508.847 398.917ZM381.875 390.296C374.996 389.354 370.051 393.279 368.205 401.548C369.644 399.291 370.619 397.762 371.594 396.234C371.715 396.3 371.836 396.366 371.957 396.432C371.356 398.705 370.754 400.978 370.153 403.252C370.346 403.302 370.539 403.354 370.732 403.405C371.447 401.743 372.161 400.082 373.12 397.851C373.55 399.109 373.774 399.764 373.998 400.418C373.732 400.091 373.466 399.763 373.2 399.436C375.317 397.756 377.435 396.074 379.916 394.105C378.521 393.648 377.586 393.343 376.135 392.868C378.233 391.928 379.906 391.178 381.875 390.296ZM492.478 490.849C492.586 482.16 485.788 467.999 479.645 464.143C479.211 467.637 480.476 470.206 483.071 472.361C484.521 473.565 485.91 475.149 486.709 476.883C488.81 481.445 490.573 486.183 492.478 490.849ZM459.188 425.756C460.213 418.2 457.902 412.548 453.04 409.943C453.707 410.965 454.346 411.944 454.985 412.923C454.863 413.051 454.741 413.179 454.62 413.307C453.441 412.503 452.262 411.7 450.212 410.303C451.834 412.592 452.765 413.907 453.697 415.222C453.534 415.38 453.371 415.539 453.209 415.698C452.442 415.018 451.675 414.338 450.908 413.658C450.751 413.834 450.595 414.011 450.437 414.187C452.143 416.563 453.847 418.94 455.95 421.87C456.038 420.197 456.077 419.441 456.116 418.685C456.398 418.623 456.678 418.563 456.96 418.501C457.632 420.692 458.305 422.881 459.188 425.756ZM440.066 426.283C439.232 429.813 440.217 432.697 443.032 434.501C444.25 435.282 445.956 435.202 447.71 435.569C446.966 434.331 446.447 433.468 445.722 432.261C447.27 432.614 448.339 432.859 449.823 433.197C447.56 429.514 445.593 426.312 443.625 423.111C443.438 423.208 443.252 423.304 443.065 423.401C443.604 425.562 444.144 427.724 444.879 430.668C443.688 429.685 443.08 429.184 442.359 428.588C442.359 429.542 442.359 430.264 442.359 430.986C442.167 431.039 441.975 431.091 441.782 431.144C441.21 429.524 440.638 427.903 440.066 426.283ZM492.666 481.468C494.115 490.894 495.407 499.302 496.698 507.71C498.498 498.679 497.924 490.104 492.666 481.468ZM485.372 427.326C481.109 428.66 476.718 430.692 472.161 431.285C467.148 431.938 463.395 434.309 460.538 436.943C464.541 435.767 469.33 434.587 473.969 432.931C478.137 431.444 483.81 432.829 485.372 427.326ZM485.908 536.043C482.934 527.559 480.301 520.051 477.667 512.542C477.478 521.045 479.278 528.77 485.908 536.043ZM482.958 523.362C483.473 523.233 483.987 523.104 484.501 522.975C482.642 516.444 480.783 509.913 478.924 503.382C478.19 503.627 477.457 503.871 476.723 504.115C478.801 510.53 480.88 516.946 482.958 523.362ZM458.638 394.077C462.969 393.131 466.815 400.058 470.651 393.643C465.82 389.856 464.86 389.87 458.638 394.077ZM491.915 390.587C492.749 391.821 493.582 393.055 494.416 394.289C493.889 394.751 493.363 395.214 492.836 395.676C491.8 394.127 490.765 392.578 489.729 391.03C489.624 391.142 489.519 391.253 489.413 391.365C491.843 394.281 494.274 397.197 496.728 400.142C497.055 399.672 497.562 398.942 498.356 397.801C498.909 399.826 499.318 401.32 499.883 403.384C501.327 395.891 495.972 393.68 491.915 390.587ZM491.641 383.402C491.328 383.7 491.016 383.998 490.703 384.297C492.976 387.091 495.248 389.885 497.52 392.678C497.748 392.473 497.974 392.268 498.202 392.064C497.2 390.632 496.199 389.199 494.779 387.17C496.244 387.685 496.893 387.912 497.542 388.14C497.757 387.912 497.972 387.683 498.188 387.455C496.317 384.554 494.446 381.654 492.576 378.753C492.227 378.973 491.88 379.194 491.532 379.414C492.366 381.239 493.199 383.063 494.516 385.947C492.971 384.579 492.306 383.99 491.641 383.402ZM484.149 487.201C485.242 491.93 487.088 496.003 491.809 497.915C492.192 491.78 487.742 489.821 484.149 487.201ZM437.386 440.678C437.619 440.365 437.852 440.052 438.086 439.739C439.429 440.308 440.771 440.876 442.012 441.402C441.386 439.797 440.601 438.156 440.131 436.419C439.914 435.617 440.314 434.627 440.434 433.722C439.037 433.671 437.609 433.439 436.264 433.697C435.925 433.763 435.545 435.479 435.728 436.298C436.068 437.812 436.811 439.224 437.386 440.678ZM494.074 505.452C493.818 498.876 488.26 499.097 485.901 495.881C486.207 501.143 489.94 502.961 494.074 505.452ZM480.205 496.877C479.688 496.989 479.171 497.1 478.655 497.211C477.811 502.815 482.646 506.393 483.194 511.501C483.688 511.326 484.183 511.151 484.677 510.976C483.187 506.276 481.696 501.577 480.205 496.877ZM482.348 434.717C479.664 435.645 476.606 436.873 473.462 437.747C469.7 438.793 466.277 440.182 464.226 443.478C467.906 442.026 471.462 439.861 475.217 439.353C479.083 438.83 481.085 436.767 482.348 434.717ZM392.589 507.445C392.218 507.201 391.846 506.957 391.474 506.713C388.065 513.674 384.655 520.635 381.246 527.597C381.588 527.786 381.93 527.975 382.273 528.164C385.711 521.258 389.15 514.351 392.589 507.445ZM450.82 448.358C442.033 448.889 440.283 450.396 440.574 457.25C441.736 451.205 446.447 450.018 450.82 448.358ZM451.34 424.182C452.328 425.459 453.062 426.407 453.796 427.356C454.132 427.093 454.468 426.83 454.803 426.567C453.096 423.855 451.388 421.143 449.68 418.431C449.276 418.655 448.872 418.879 448.468 419.103C448.917 421.644 449.365 424.185 449.814 426.725C450.158 426.657 450.502 426.588 450.846 426.519C450.986 425.859 451.125 425.199 451.34 424.182ZM501.221 410.779C501.397 413.332 501.125 415.964 501.668 416.17C504.493 417.24 503.052 419.113 502.828 420.766C502.665 421.967 502.42 423.156 502.114 424.917C505.386 420.191 505.23 415.867 501.221 410.779ZM505.96 354.757C504.234 353.357 503.148 352.261 501.866 351.582C501.519 351.398 499.95 352.807 500.007 352.929C500.696 354.421 501.585 355.81 502.422 357.225C503.339 356.586 504.257 355.946 505.96 354.757ZM493.557 517.49C493.148 517.842 492.739 518.194 492.33 518.547C494.604 521.524 495.899 520.394 493.557 517.49ZM497.704 520.44C498.381 514.264 494.364 513.373 491.087 511.798C493.14 514.479 495.192 517.16 497.704 520.44ZM480.373 490.534C479.713 490.804 479.051 491.072 478.39 491.341C480.024 494.496 481.659 497.65 483.293 500.804C483.73 500.582 484.168 500.359 484.606 500.137C483.195 496.936 481.784 493.735 480.373 490.534ZM423.454 485.639C423.203 485.227 422.951 484.816 422.699 484.405C418.697 487.185 414.695 489.964 410.693 492.743C410.891 493.064 411.087 493.384 411.285 493.704C415.341 491.016 419.397 488.327 423.454 485.639ZM489.517 504.995C489.289 505.283 489.062 505.57 488.835 505.858C491.146 507.914 493.457 509.97 496.395 512.582C496.073 506.657 492.049 506.771 489.517 504.995ZM473.058 458.462C470.844 464.479 475.039 465.676 477.566 467.869C476.231 465.082 474.896 462.296 473.058 458.462ZM471.755 435.142C467.232 435.435 461.418 440.844 460.787 444.626C464.058 441.797 468.05 438.345 471.755 435.142ZM509.121 351.777C508.839 351.687 508.556 351.598 508.273 351.508C507.664 353.026 506.887 354.499 506.516 356.08C506.328 356.88 506.873 357.874 507.087 358.781C507.94 358.059 509.364 357.454 509.52 356.59C509.795 355.069 509.297 353.39 509.121 351.777ZM477.23 448.716C476.765 449.072 476.299 449.429 475.834 449.785C478.29 453.067 480.747 456.349 483.203 459.631C483.488 459.417 483.774 459.202 484.059 458.988C481.783 455.564 479.506 452.14 477.23 448.716ZM501.32 357.875C500.926 358.506 500.531 359.138 500.138 359.768C501.341 360.685 502.468 361.795 503.798 362.393C504.156 362.554 505.133 361.163 505.825 360.485C504.324 359.615 502.821 358.745 501.32 357.875ZM479.314 482.881C479.814 482.459 480.315 482.036 480.815 481.614C479.097 479.349 477.38 477.085 475.661 474.821C475.273 475.131 474.884 475.443 474.495 475.754C476.101 478.13 477.708 480.505 479.314 482.881Z" fill="black"/>
<path d="M418.011 461.259C420.85 459.494 423.688 457.728 426.526 455.963C427.247 455.602 427.967 455.241 428.688 454.879C426.814 458.74 425.071 462.716 420.797 464.293C420.797 464.292 420.981 464.38 420.981 464.38C420.425 462.874 416.411 465.079 418.011 461.259Z" fill="black"/>
<path d="M420.981 464.38L420.797 464.293C420.877 465.015 421.282 465.99 420.986 466.419C418.394 470.174 415.679 473.831 413.145 477.317C412.14 472.556 415.764 466.325 420.981 464.38Z" fill="black"/>
<path d="M392.589 507.445C389.15 514.351 385.711 521.258 382.272 528.165C381.93 527.976 381.588 527.787 381.246 527.598C384.655 520.636 388.065 513.675 391.474 506.713C391.846 506.956 392.217 507.201 392.589 507.445Z" fill="black"/>
<path d="M507.459 559.299C504.405 555.092 501.351 550.884 498.296 546.676C498.575 546.457 498.854 546.239 499.133 546.02C502.28 550.25 507.84 559.096 507.459 559.299Z" fill="white"/>
<path d="M450.82 448.358C446.447 450.017 441.736 451.205 440.574 457.25C440.283 450.396 442.033 448.89 450.82 448.358Z" fill="black"/>
<path d="M423.454 485.639C419.398 488.327 415.341 491.015 411.284 493.704C411.087 493.384 410.89 493.064 410.693 492.743C414.695 489.963 418.697 487.185 422.699 484.405C422.951 484.816 423.203 485.228 423.454 485.639Z" fill="black"/>
<path d="M413.523 525.004C412.62 525.795 411.718 526.585 410.816 527.376C410.697 527.269 410.578 527.161 410.459 527.053C415.938 520.634 421.416 514.215 426.895 507.796C426.738 507.586 426.581 507.375 426.424 507.165C423.44 509.111 420.455 511.056 417.471 513.002C417.295 512.68 417.118 512.358 416.941 512.036C423.469 507.58 429.997 503.123 436.524 498.667C436.711 498.92 436.897 499.172 437.084 499.425C436.608 499.883 436.204 500.522 435.646 500.772C429.561 503.494 427.909 509.706 424.8 515.067C421.452 520.836 416.26 525.398 411.873 530.487C411.579 530.243 411.285 529.999 410.992 529.755C411.951 528.334 412.911 526.912 413.871 525.491C413.754 525.328 413.638 525.166 413.523 525.004Z" fill="black"/>
<path d="M435.3 488.016C437.395 493.47 436.915 495.973 432.818 499.014C428.436 502.267 423.927 505.325 419.474 508.468C419.286 508.179 419.099 507.889 418.911 507.599C423.507 504.269 428.102 500.938 431.485 498.486C432.563 494.131 433.342 490.984 434.122 487.836C434.514 487.896 434.907 487.956 435.3 488.016Z" fill="black"/>
<path d="M442.136 472.328C444.915 480.026 438.716 487.082 430.114 486.624C431.684 485.689 432.762 484.964 433.905 484.383C437.14 482.738 439.528 480.527 439.899 476.357C440.007 475.137 441.157 474.022 442.136 472.328Z" fill="black"/>
<path d="M431.469 488.496C430.139 492.975 430.855 497.969 425.491 499.396C424.709 493.96 426.834 489.687 431.469 488.496Z" fill="black"/>
<path d="M444.441 481.356C446.668 475.881 450.11 477.638 453.854 477.797C451.891 483.509 448.07 480.836 444.441 481.356Z" fill="black"/>
<path d="M443.219 484.023C445.045 484.745 447.026 485.219 448.606 486.334C449.112 486.691 448.558 488.743 448.42 491.31C445.753 489.016 444.024 487.528 442.294 486.041C442.603 485.368 442.911 484.695 443.219 484.023Z" fill="black"/>
<path d="M397.848 436.019C401.556 433.347 407.424 433.508 411.597 436.26C412.914 437.129 414.631 437.316 416.585 437.951C415.919 438.361 415.384 438.697 414.844 439.021C413.212 440.001 411.631 441.099 409.931 441.921C408.057 442.827 406.005 444.192 404.16 443.995C402.87 443.858 401.759 441.464 400.639 440.016C399.721 438.827 398.908 437.546 397.848 436.019Z" fill="black"/>
<path d="M433.187 404.026C428.736 398.641 424.852 398.168 417.962 401.74C419.687 398.475 423.717 397.303 428.661 398.628C432.328 399.611 436.072 403.482 435.783 406.48C435.673 407.615 434.535 408.913 433.534 409.556C433.069 409.856 431.813 408.769 430.361 408.026C426.003 409.82 424.747 409.054 424.166 402.535C422.024 403.573 420.13 404.491 418.273 405.392C421.354 400.766 423.354 400.54 433.187 404.026Z" fill="black"/>
<path d="M435.771 398.31C430.684 396.892 425.527 395.455 420.599 394.082C423.983 390.704 431.46 392.705 435.771 398.31Z" fill="black"/>
<path d="M403.937 429.67C395.201 427.264 394.437 424.032 400.836 416.724C396.878 422.407 396.805 426.984 403.937 429.67Z" fill="black"/>
<path d="M475.998 385.841C472.873 384.469 472.47 381.996 474.292 379.751C475.144 378.7 477.475 378.022 478.707 378.479C482.8 379.999 483.868 382.562 482.547 386.812C483.016 382.764 480.821 380.59 477.791 379.602C476.717 379.251 475.157 380.577 473.576 381.239C474.617 383.217 475.307 384.529 475.998 385.841Z" fill="black"/>
<path d="M398.406 408.598C399.885 408.598 401.083 407.155 401.083 405.374C401.083 403.592 399.885 402.149 398.406 402.149C396.928 402.149 395.729 403.592 395.729 405.374C395.729 407.155 396.928 408.598 398.406 408.598Z" fill="black"/>
<path d="M716.635 400.662C715.027 400.2 713.855 399.633 713.119 398.963C712.39 398.286 712.025 397.452 712.025 396.463C712.025 395.343 712.471 394.419 713.363 393.689C714.262 392.954 715.427 392.586 716.859 392.586C717.836 392.586 718.705 392.775 719.467 393.152C720.235 393.53 720.827 394.051 721.244 394.715C721.667 395.379 721.879 396.105 721.879 396.893H719.994C719.994 396.033 719.721 395.359 719.174 394.871C718.627 394.376 717.855 394.129 716.859 394.129C715.935 394.129 715.212 394.334 714.691 394.744C714.177 395.148 713.92 395.711 713.92 396.434C713.92 397.013 714.164 397.505 714.652 397.908C715.147 398.305 715.984 398.67 717.162 399.002C718.347 399.334 719.271 399.702 719.936 400.105C720.606 400.503 721.101 400.968 721.42 401.502C721.745 402.036 721.908 402.664 721.908 403.387C721.908 404.539 721.459 405.464 720.561 406.16C719.662 406.85 718.461 407.195 716.957 407.195C715.98 407.195 715.069 407.01 714.223 406.639C713.376 406.261 712.722 405.747 712.26 405.096C711.804 404.445 711.576 403.706 711.576 402.879H713.461C713.461 403.738 713.777 404.419 714.408 404.92C715.046 405.415 715.896 405.662 716.957 405.662C717.947 405.662 718.705 405.46 719.232 405.057C719.76 404.653 720.023 404.103 720.023 403.406C720.023 402.71 719.779 402.173 719.291 401.795C718.803 401.411 717.917 401.033 716.635 400.662ZM728.422 407.195C726.99 407.195 725.824 406.727 724.926 405.789C724.027 404.845 723.578 403.585 723.578 402.01V401.678C723.578 400.63 723.777 399.695 724.174 398.875C724.577 398.048 725.137 397.404 725.854 396.941C726.576 396.473 727.357 396.238 728.197 396.238C729.571 396.238 730.639 396.691 731.4 397.596C732.162 398.501 732.543 399.796 732.543 401.482V402.234H725.385C725.411 403.276 725.714 404.119 726.293 404.764C726.879 405.402 727.621 405.721 728.52 405.721C729.158 405.721 729.698 405.59 730.141 405.33C730.583 405.07 730.971 404.725 731.303 404.295L732.406 405.154C731.521 406.515 730.193 407.195 728.422 407.195ZM728.197 397.723C727.468 397.723 726.856 397.99 726.361 398.523C725.867 399.051 725.561 399.793 725.443 400.75H730.736V400.613C730.684 399.695 730.437 398.986 729.994 398.484C729.551 397.977 728.952 397.723 728.197 397.723ZM736.352 396.434L736.41 397.762C737.217 396.746 738.272 396.238 739.574 396.238C741.807 396.238 742.934 397.498 742.953 400.018V407H741.146V400.008C741.14 399.246 740.964 398.683 740.619 398.318C740.281 397.954 739.75 397.771 739.027 397.771C738.441 397.771 737.927 397.928 737.484 398.24C737.042 398.553 736.697 398.963 736.449 399.471V407H734.643V396.434H736.352ZM747.484 397.713C748.285 396.73 749.327 396.238 750.609 396.238C752.842 396.238 753.969 397.498 753.988 400.018V407H752.182V400.008C752.175 399.246 751.999 398.683 751.654 398.318C751.316 397.954 750.785 397.771 750.062 397.771C749.477 397.771 748.962 397.928 748.52 398.24C748.077 398.553 747.732 398.963 747.484 399.471V407H745.678V392H747.484V397.713ZM763.217 407C763.113 406.792 763.028 406.421 762.963 405.887C762.123 406.759 761.12 407.195 759.955 407.195C758.913 407.195 758.057 406.902 757.387 406.316C756.723 405.724 756.391 404.975 756.391 404.07C756.391 402.97 756.807 402.117 757.641 401.512C758.48 400.9 759.659 400.594 761.176 400.594H762.934V399.764C762.934 399.132 762.745 398.631 762.367 398.26C761.99 397.882 761.433 397.693 760.697 397.693C760.053 397.693 759.512 397.856 759.076 398.182C758.64 398.507 758.422 398.901 758.422 399.363H756.605C756.605 398.836 756.791 398.328 757.162 397.84C757.54 397.345 758.048 396.954 758.686 396.668C759.33 396.382 760.036 396.238 760.805 396.238C762.022 396.238 762.976 396.544 763.666 397.156C764.356 397.762 764.714 398.598 764.74 399.666V404.529C764.74 405.499 764.864 406.271 765.111 406.844V407H763.217ZM760.219 405.623C760.785 405.623 761.322 405.477 761.83 405.184C762.338 404.891 762.706 404.51 762.934 404.041V401.873H761.518C759.304 401.873 758.197 402.521 758.197 403.816C758.197 404.383 758.386 404.826 758.764 405.145C759.141 405.464 759.626 405.623 760.219 405.623Z" fill="#8F99A8"/>
<line x1="706" y1="348" x2="1083" y2="348" stroke="#231911" stroke-width="2"/>
<line x1="706" y1="418" x2="1083" y2="418" stroke="#231911" stroke-width="2"/>
<defs>
<filter id="filter0_d" x="0" y="0" width="1375" height="1005" filterUnits="userSpaceOnUse" color-interpolation-filters="sRGB">
<feFlood flood-opacity="0" result="BackgroundImageFix"/>
<feColorMatrix in="SourceAlpha" type="matrix" values="0 0 0 0 0 0 0 0 0 0 0 0 0 0 0 0 0 0 127 0"/>
<feOffset dy="4"/>
<feGaussianBlur stdDeviation="2"/>
<feColorMatrix type="matrix" values="0 0 0 0 0 0 0 0 0 0 0 0 0 0 0 0 0 0 0.25 0"/>
<feBlend mode="normal" in2="BackgroundImageFix" result="effect1_dropShadow"/>
<feBlend mode="normal" in="SourceGraphic" in2="effect1_dropShadow" result="shape"/>
</filter>
<filter id="filter1_d" x="769.521" y="443" width="256.604" height="65.3107" filterUnits="userSpaceOnUse" color-interpolation-filters="sRGB">
<feFlood flood-opacity="0" result="BackgroundImageFix"/>
<feColorMatrix in="SourceAlpha" type="matrix" values="0 0 0 0 0 0 0 0 0 0 0 0 0 0 0 0 0 0 127 0"/>
<feOffset dy="4"/>
<feGaussianBlur stdDeviation="2"/>
<feColorMatrix type="matrix" values="0 0 0 0 0 0 0 0 0 0 0 0 0 0 0 0 0 0 0.25 0"/>
<feBlend mode="normal" in2="BackgroundImageFix" result="effect1_dropShadow"/>
<feBlend mode="normal" in="SourceGraphic" in2="effect1_dropShadow" result="shape"/>
</filter>
<filter id="filter2_d" x="702" y="567" width="103" height="109" filterUnits="userSpaceOnUse" color-interpolation-filters="sRGB">
<feFlood flood-opacity="0" result="BackgroundImageFix"/>
<feColorMatrix in="SourceAlpha" type="matrix" values="0 0 0 0 0 0 0 0 0 0 0 0 0 0 0 0 0 0 127 0"/>
<feOffset dy="4"/>
<feGaussianBlur stdDeviation="2"/>
<feColorMatrix type="matrix" values="0 0 0 0 0 0 0 0 0 0 0 0 0 0 0 0 0 0 0.25 0"/>
<feBlend mode="normal" in2="BackgroundImageFix" result="effect1_dropShadow"/>
<feBlend mode="normal" in="SourceGraphic" in2="effect1_dropShadow" result="shape"/>
</filter>
<filter id="filter3_d" x="846" y="567" width="103" height="108" filterUnits="userSpaceOnUse" color-interpolation-filters="sRGB">
<feFlood flood-opacity="0" result="BackgroundImageFix"/>
<feColorMatrix in="SourceAlpha" type="matrix" values="0 0 0 0 0 0 0 0 0 0 0 0 0 0 0 0 0 0 127 0"/>
<feOffset dy="4"/>
<feGaussianBlur stdDeviation="2"/>
<feColorMatrix type="matrix" values="0 0 0 0 0 0 0 0 0 0 0 0 0 0 0 0 0 0 0.25 0"/>
<feBlend mode="normal" in2="BackgroundImageFix" result="effect1_dropShadow"/>
<feBlend mode="normal" in="SourceGraphic" in2="effect1_dropShadow" result="shape"/>
</filter>
<filter id="filter4_d" x="983" y="567" width="104" height="108" filterUnits="userSpaceOnUse" color-interpolation-filters="sRGB">
<feFlood flood-opacity="0" result="BackgroundImageFix"/>
<feColorMatrix in="SourceAlpha" type="matrix" values="0 0 0 0 0 0 0 0 0 0 0 0 0 0 0 0 0 0 127 0"/>
<feOffset dy="4"/>
<feGaussianBlur stdDeviation="2"/>
<feColorMatrix type="matrix" values="0 0 0 0 0 0 0 0 0 0 0 0 0 0 0 0 0 0 0.25 0"/>
<feBlend mode="normal" in2="BackgroundImageFix" result="effect1_dropShadow"/>
<feBlend mode="normal" in="SourceGraphic" in2="effect1_dropShadow" result="shape"/>
</filter>
<linearGradient id="paint0_linear" x1="431" y1="285" x2="431" y2="559" gradientUnits="userSpaceOnUse">
<stop stop-color="white"/>
<stop offset="1" stop-color="white" stop-opacity="0"/>
</linearGradient>
</defs>
</svg>
